<?xml version="1.0" standalone="no"?>
<!DOCTYPE svg PUBLIC "-//W3C//DTD SVG 1.1//EN" "http://www.w3.org/Graphics/SVG/1.1/DTD/svg11.dtd" >
<!--
2013-9-30: Created.
-->
<svg>
<metadata>
Created by iconfont
</metadata>
<defs>

<font id="iconfont" horiz-adv-x="1024" >
  <font-face
    font-family="iconfont"
    font-weight="500"
    font-stretch="normal"
    units-per-em="1024"
    ascent="896"
    descent="-128"
  />
    <missing-glyph />
    
    <glyph glyph-name="x" unicode="x" horiz-adv-x="1001"
d="M281 543q-27 -1 -53 -1h-83q-18 0 -36.5 -6t-32.5 -18.5t-23 -32t-9 -45.5v-76h912v41q0 16 -0.5 30t-0.5 18q0 13 -5 29t-17 29.5t-31.5 22.5t-49.5 9h-133v-97h-438v97zM955 310v-52q0 -23 0.5 -52t0.5 -58t-10.5 -47.5t-26 -30t-33 -16t-31.5 -4.5q-14 -1 -29.5 -0.5
t-29.5 0.5h-32l-45 128h-439l-44 -128h-29h-34q-20 0 -45 1q-25 0 -41 9.5t-25.5 23t-13.5 29.5t-4 30v167h911zM163 247q-12 0 -21 -8.5t-9 -21.5t9 -21.5t21 -8.5q13 0 22 8.5t9 21.5t-9 21.5t-22 8.5zM316 123q-8 -26 -14 -48q-5 -19 -10.5 -37t-7.5 -25t-3 -15t1 -14.5
t9.5 -10.5t21.5 -4h37h67h81h80h64h36q23 0 34 12t2 38q-5 13 -9.5 30.5t-9.5 34.5q-5 19 -11 39h-368zM336 498v228q0 11 2.5 23t10 21.5t20.5 15.5t34 6h188q31 0 51.5 -14.5t20.5 -52.5v-227h-327z" />
    

    
    <glyph glyph-name="qiandao" unicode="&#58966;" d="M704 725.333333H320v-53.333333a21.333333 21.333333 0 0 0-42.666667 0V725.333333h-42.666666a106.666667 106.666667 0 0 1-106.666667-106.666666v-85.333334h768v85.333334a106.666667 106.666667 0 0 1-106.666667 106.666666h-42.666666v-53.333333a21.333333 21.333333 0 0 0-42.666667 0V725.333333z m42.666667 42.666667h42.666666a149.333333 149.333333 0 0 0 149.333334-149.333333v-512a149.333333 149.333333 0 0 0-149.333334-149.333334H234.666667a149.333333 149.333333 0 0 0-149.333334 149.333334V618.666667a149.333333 149.333333 0 0 0 149.333334 149.333333h42.666666V800a21.333333 21.333333 0 0 0 42.666667 0V768h384V800a21.333333 21.333333 0 0 0 42.666667 0V768z m149.333333-277.333333H128v-384a106.666667 106.666667 0 0 1 106.666667-106.666667h554.666666a106.666667 106.666667 0 0 1 106.666667 106.666667V490.666667zM327.210667 253.696a21.333333 21.333333 0 0 0 28.245333 32l98.048-86.549333a21.333333 21.333333 0 0 1 29.866667 1.642666l179.882666 197.568a21.333333 21.333333 0 0 0 31.552-28.714666l-179.861333-197.568a64 64 0 0 0-89.664-4.906667l-98.069333 86.528z"  horiz-adv-x="1024" />

    
    <glyph glyph-name="city" unicode="&#58881;" d="M192 596.672v-145.6l192 63.872V673.472l-192-76.8zM128 640l320 128v-299.2L128 362.24V640zM64 338.432v-346.88l320-45.76V449.28L64 338.432zM0 384l448 155.136V-128l-448 64V384zM448 822.208V-64h320V776.512l-320 45.696zM384 896l448-64v-960H384V896zM832 561.9200000000001v-611.84l192 38.4V523.52l-192 38.4zM768 640l320-64v-640l-320-64V640z"  horiz-adv-x="1088" />

    
    <glyph glyph-name="year-left" unicode="&#58882;" d="M632.149333 388.608l392.277334-392.277333-90.538667-90.453334-392.192 392.192-90.453333 90.453334L933.802667 871.253333l90.453333-90.453333-392.192-392.192z m-426.666666 0l392.277333-392.277333-90.538667-90.453334-392.192 392.192-90.453333 90.453334L507.136 871.253333l90.453333-90.453333-392.192-392.192z"  horiz-adv-x="1024" />

    
    <glyph glyph-name="month-left" unicode="&#58883;" d="M351.658667 387.669333l392.277333-392.192-90.538667-90.453333L261.12 297.045333 170.666667 387.669333 653.397333 870.4l90.453334-90.453333-392.192-392.277334z"  horiz-adv-x="1024" />

    
    <glyph glyph-name="calendar" unicode="&#58884;" d="M896 768h160.64c17.28 0 31.36-14.08 31.36-31.872v-832.256a31.424 31.424 0 0 0-31.36-31.872H31.36c-17.28 0-31.36 14.08-31.36 31.872V736.1279999999999C0 753.7280000000001 13.76 768 31.36 768H192V864.32C192 881.792 205.824 896 223.68 896h128.64C369.792 896 384 882.176 384 864.32V768h320V864.32c0 17.472 13.824 31.68 31.68 31.68h128.64c17.472 0 31.68-13.824 31.68-31.68V768zM64 640v-704h960V640H64z m192 192v-128h64V832H256z m512 0v-128h64V832h-64zM192 480c0 17.664 13.696 32 32.32 32h63.36c17.856 0 32.32-14.848 32.32-32 0-17.664-13.696-32-32.32-32h-63.36A32.512 32.512 0 0 0 192 480z m0-192c0 17.664 13.696 32 32.32 32h63.36c17.856 0 32.32-14.848 32.32-32 0-17.664-13.696-32-32.32-32h-63.36A32.512 32.512 0 0 0 192 288z m0-192c0 17.664 13.696 32 32.32 32h63.36c17.856 0 32.32-14.848 32.32-32 0-17.664-13.696-32-32.32-32h-63.36A32.512 32.512 0 0 0 192 96z m192 384c0 17.664 13.696 32 32.32 32h63.36c17.856 0 32.32-14.848 32.32-32 0-17.664-13.696-32-32.32-32h-63.36A32.512 32.512 0 0 0 384 480z m0-192c0 17.664 13.696 32 32.32 32h63.36c17.856 0 32.32-14.848 32.32-32 0-17.664-13.696-32-32.32-32h-63.36A32.512 32.512 0 0 0 384 288z m0-192c0 17.664 13.696 32 32.32 32h63.36c17.856 0 32.32-14.848 32.32-32 0-17.664-13.696-32-32.32-32h-63.36A32.512 32.512 0 0 0 384 96z m192 384c0 17.664 13.696 32 32.32 32h63.36c17.856 0 32.32-14.848 32.32-32 0-17.664-13.696-32-32.32-32h-63.36A32.512 32.512 0 0 0 576 480z m0-192c0 17.664 13.696 32 32.32 32h63.36c17.856 0 32.32-14.848 32.32-32 0-17.664-13.696-32-32.32-32h-63.36A32.512 32.512 0 0 0 576 288z m0-192c0 17.664 13.696 32 32.32 32h63.36c17.856 0 32.32-14.848 32.32-32 0-17.664-13.696-32-32.32-32h-63.36A32.512 32.512 0 0 0 576 96z m192 384c0 17.664 13.696 32 32.32 32h63.36c17.856 0 32.32-14.848 32.32-32 0-17.664-13.696-32-32.32-32h-63.36A32.512 32.512 0 0 0 768 480z m0-192c0 17.664 13.696 32 32.32 32h63.36c17.856 0 32.32-14.848 32.32-32 0-17.664-13.696-32-32.32-32h-63.36A32.512 32.512 0 0 0 768 288z m0-192c0 17.664 13.696 32 32.32 32h63.36c17.856 0 32.32-14.848 32.32-32 0-17.664-13.696-32-32.32-32h-63.36a32.512 32.512 0 0 0-32.32 32z"  horiz-adv-x="1088" />

    
    <glyph glyph-name="experiment" unicode="&#58885;" d="M978.887111 665.656889c-102.968889 31.175111-204.117333 31.687111-302.819555 1.365333-96.085333-29.525333-195.584-26.112-299.349334 10.695111L314.140444 858.225778A28.444444 28.444444 0 0 0 341.048889 896h678.343111a28.444444 28.444444 0 0 0 26.851556-37.831111L978.887111 665.6z m-18.773333-53.76l-52.451556-149.845333a56.888889 56.888889 0 0 1 15.758222-61.155556L1240.746667 116.62222199999997a108.544 108.544 0 0 0 5.518222-156.387555l-45.056-46.478223a113.777778 113.777778 0 0 0-81.692445-34.588444H249.742222a113.777778 113.777778 0 0 0-78.961778 31.857778l-50.972444 49.208889a107.918222 107.918222 0 0 0 3.413333 158.492444L436.906667 396.344889a56.888889 56.888889 0 0 1 16.042666 61.212444l-53.077333 153.201778c100.238222-27.818667 198.030222-27.306667 292.977778 1.877333 86.755556 26.737778 175.672889 26.567111 267.207111-0.739555z"  horiz-adv-x="1365" />

    
    <glyph glyph-name="video2" unicode="&#58886;" d="M113.777778 839.111111h853.333333a113.777778 113.777778 0 0 0 113.777778-113.777778v-682.666666a113.777778 113.777778 0 0 0-113.777778-113.777778H113.777778a113.777778 113.777778 0 0 0-113.777778 113.777778V725.333333a113.777778 113.777778 0 0 0 113.777778 113.777778zM1137.777778 611.555556l178.972444 178.972444a28.444444 28.444444 0 0 0 48.583111-20.081778v-772.892444a28.444444 28.444444 0 0 0-48.583111-20.081778L1137.777778 156.44444399999998V611.555556z"  horiz-adv-x="1365" />

    
    <glyph glyph-name="month-right" unicode="&#58887;" d="M699.050667 387.669333l-392.192-392.192 90.453333-90.453333 392.277333 392.106667 90.453334 90.538666L397.482667 870.4l-90.453334-90.453333 392.106667-392.277334z"  horiz-adv-x="1024" />

    
    <glyph glyph-name="year-right" unicode="&#58888;" d="M416.938667 388.608L24.746667-3.6693330000000515l90.453333-90.453334 392.192 392.192 90.538667 90.453334L115.2 871.253333 24.746667 780.8l392.192-392.192z m426.666666 0L451.413333-3.6693330000000515l90.453334-90.453334 392.192 392.192 90.538666 90.453334L541.866667 871.253333 451.413333 780.8l392.192-392.192z"  horiz-adv-x="1024" />

    
    <glyph glyph-name="accounts" unicode="&#58889;" d="M153.6 896h716.8a153.6 153.6 0 0 0 153.6-153.6v-716.8a153.6 153.6 0 0 0-153.6-153.6H153.6a153.6 153.6 0 0 0-153.6 153.6V742.4a153.6 153.6 0 0 0 153.6 153.6z m0-51.2a102.4 102.4 0 0 1-102.4-102.4v-716.8a102.4 102.4 0 0 1 102.4-102.4h716.8a102.4 102.4 0 0 1 102.4 102.4V742.4a102.4 102.4 0 0 1-102.4 102.4H153.6z m614.4-768H256l125.7472 251.5456a204.8 204.8 0 1 0 260.4544 0L768 76.79999999999995z m-189.7984 265.1136l31.4368 25.9072a153.6 153.6 0 1 1-195.328 0l31.488-25.9072L338.8416 128h346.3168l-106.9568 213.9136z"  horiz-adv-x="1024" />

    
    <glyph glyph-name="password-hide" unicode="&#58890;" d="M187.904 86.39999999999998C72.448 182.336 0 303.36 0 384c0 152.256 257.92 448 576 448 101.888 0 197.632-30.464 280.704-76.8l81.28 81.344 90.56-90.496L213.952-68.54399999999998 123.52 21.951999999999998l64.448 64.448z m518.144 518.144a256 256 0 0 1-350.592-350.592l350.592 350.592zM337.536-8.960000000000036l151.936 151.936a256 256 0 0 1 327.552 327.552l180.864 180.864C1093.504 561.152 1152 456.128 1152 384c0-151.488-257.92-448-576-448-85.056 0-165.76 21.12-238.464 55.04z"  horiz-adv-x="1152" />

    
    <glyph glyph-name="password-display" unicode="&#58891;" d="M643.712 630.976A256.256 256.256 0 0 1 320 384a256 256 0 1 1 510.08 31.872 144 144 0 1 0-186.304 215.04zM576-64c-318.08 0-576 295.744-576 448 0 152.256 257.92 448 576 448s576-296.512 576-448-257.92-448-576-448z"  horiz-adv-x="1152" />

    
    <glyph glyph-name="file" unicode="&#58892;" d="M113.777778 782.222222a56.888889 56.888889 0 0 1-56.888889-56.888889v-113.777777a56.888889 56.888889 0 0 1 56.888889-56.888889h1137.777778a56.888889 56.888889 0 0 1 56.888888 56.888889V725.333333a56.888889 56.888889 0 0 1-56.888888 56.888889H113.777778z m0 56.888889h1137.777778a113.777778 113.777778 0 0 0 113.777777-113.777778v-113.777777a113.777778 113.777778 0 0 0-113.777777-113.777778H113.777778a113.777778 113.777778 0 0 0-113.777778 113.777778V725.333333a113.777778 113.777778 0 0 0 113.777778 113.777778zM113.777778 896h299.804444A113.777778 113.777778 0 0 0 494.933333 861.809778l100.124445-102.286222A113.777778 113.777778 0 0 1 676.352 725.333333H1251.555556a113.777778 113.777778 0 0 0 113.777777-113.777777v-625.777778a113.777778 113.777778 0 0 0-113.777777-113.777778H113.777778a113.777778 113.777778 0 0 0-113.777778 113.777778V782.222222a113.777778 113.777778 0 0 0 113.777778 113.777778z m483.555555-398.222222a28.444444 28.444444 0 0 1-28.444444-28.444445V327.11111100000005h227.555555V469.333333a28.444444 28.444444 0 0 1-28.444444 28.444445h-170.666667z m103.082667-384l203.377778 162.702222a28.444444 28.444444 0 0 1-17.749334 50.631111h-406.755555a28.444444 28.444444 0 0 1-17.749333-50.631111l203.377777-162.702222a28.444444 28.444444 0 0 1 35.498667 0z"  horiz-adv-x="1365" />

    
    <glyph glyph-name="ask" unicode="&#58893;" d="M682.654531-55.22220000000004c98.814243 0 153.938597 3.128833 236.084691 28.330163 58.480738 17.919681 270.786297-129.306146 316.069048-96.254289 37.375336 27.306181-51.938632 240.408171-26.111536 279.262591 45.510302 68.379229 71.280511 155.474569 71.280511 264.244191C1279.977245 770.619118 1012.547332 896 682.654531 896S85.331816 770.619118 85.331816 420.417344c0-350.258662 267.429912-475.639544 597.322715-475.639544zM682.654531 327.121225a85.331816 85.331816 0 1 0 0 170.663632 85.331816 85.331816 0 0 0 0-170.663632z m284.439387 0a85.331816 85.331816 0 1 0 0 170.663632 85.331816 85.331816 0 0 0 0-170.663632zM398.215143 327.121225a85.331816 85.331816 0 1 0 0 170.663632 85.331816 85.331816 0 0 0 0-170.663632z"  horiz-adv-x="1365" />

    
    <glyph glyph-name="arrow-down" unicode="&#58967;" d="M516.608 87.80799999999999l345.984 345.984a64 64 0 1 0 90.496-90.496L561.92-48a64 64 0 0 0-90.496 0L80 343.29600000000005a64 64 0 1 0 90.496 90.496l346.112-345.984z"  horiz-adv-x="1024" />

    
    <glyph glyph-name="arrow-right" unicode="&#58968;" d="M808.192 388.608L462.208 734.592a64 64 0 1 0 90.496 90.496L944 433.92a64 64 0 0 0 0-90.496L552.704-48a64 64 0 1 0-90.496 90.496l345.984 346.112z"  horiz-adv-x="1024" />

    
    <glyph glyph-name="quotes-2" unicode="&#58969;" d="M1599.601778 872.448l-451.697778-981.674667H774.599111l261.688889 981.674667h563.2z m-729.998222 0l-451.697778-981.674667H44.600889l261.688889 981.674667h563.2z"  horiz-adv-x="1706" />

    
    <glyph glyph-name="add1" unicode="&#58970;" d="M486.4 384V896h51.2v-512h486.4v-51.2H537.6v-460.8h-51.2V332.79999999999995H0v51.2h486.4z"  horiz-adv-x="1024" />

    
    <glyph glyph-name="quotes-1" unicode="&#58971;" d="M1625.429333-109.22666700000002h-373.304889L800.426667 872.448h563.313777l261.688889-981.674667z m-729.998222 0H522.24L70.428444 872.448H633.742222l261.688889-981.674667z"  horiz-adv-x="1706" />

    
    <glyph glyph-name="photo" unicode="&#58972;" d="M153.6 844.8a102.4 102.4 0 0 1-102.4-102.4v-716.8a102.4 102.4 0 0 1 102.4-102.4h716.8a102.4 102.4 0 0 1 102.4 102.4V742.4a102.4 102.4 0 0 1-102.4 102.4H153.6z m0 51.2h716.8a153.6 153.6 0 0 0 153.6-153.6v-716.8a153.6 153.6 0 0 0-153.6-153.6H153.6a153.6 153.6 0 0 0-153.6 153.6V742.4a153.6 153.6 0 0 0 153.6 153.6zM512 230.39999999999998c157.4912 0 204.8 142.848 204.8 256s-47.872 204.8-204.8 204.8-204.8-91.648-204.8-204.8 47.3088-256 204.8-256z m0-51.2c-206.4896 0-256 165.8368-256 307.2s49.2544 256 256 256 256-114.6368 256-256-49.5104-307.2-256-307.2zM858.112-76.79999999999995l-45.056 207.4112-301.056 47.9232-301.0048-47.8208L165.9392-76.79999999999995H858.112z m-37.0176 258.048a51.2 51.2 0 0 0 41.984-39.7312l51.7632-238.4896a25.6 25.6 0 0 0-24.9856-31.0272H134.144a25.6 25.6 0 0 0-24.9856 31.0272l51.8144 238.592a51.2 51.2 0 0 0 41.984 39.68l301.0048 47.8208a51.2 51.2 0 0 0 16.0768 0l301.056-47.9232z"  horiz-adv-x="1024" />

    
    <glyph glyph-name="logo" unicode="&#58973;" d="M2667.36 842.656c81.728 0 148.16-55.52 148.16-123.744v-152.384c0-68.32-66.432-123.84-148.16-123.84h-149.344c-81.696 0-148.16 55.52-148.16 123.84v152.32c0 68.256 66.464 123.84 148.16 123.84h149.344z m59.232-276.16V718.912c0 27.488-26.56 49.6-59.232 49.6h-149.344c-32.64 0-59.232-22.112-59.232-49.6v-152.416c0-27.36 26.56-49.504 59.232-49.504h149.344c32.64 0 59.232 22.144 59.232 49.504zM2173.92 689.344v0.032c81.792 0 128.384-39.232 128.384-107.456v-24.032h-0.448c-5.344-64.256-69.472-115.2-147.744-115.2h-149.184c-81.728 0-148.256 55.52-148.256 123.84v152.32c0 68.256 66.56 123.84 148.256 123.84h265.76v-74.176h-265.76c-32.864 0-59.328-22.112-59.328-49.6v-29.568h228.32z m-19.776-172.352c32.544 0 58.976 21.92 59.136 49.152-0.288 26.976-26.624 48.768-59.072 48.768h-208.64v-48.416c0-27.36 26.432-49.504 59.36-49.504h149.216zM1642.784 842.656c81.76 0 148.288-55.52 148.288-123.744v-152.416c0-68.32-66.528-123.84-148.32-123.84H1337.28v74.336h305.504c32.768 0 59.36 22.144 59.36 49.536V607.104H1367.84V676.96H1702.08v41.92c0 27.456-26.592 49.568-59.36 49.568H1337.28v74.24h305.504zM990.208 94.33600000000001c-35.584-9.568-73.408-12.672-107.68-24.48 58.176 50.464 55.008 128.192 93.824 187.584 12.384 16.704 22.72 34.24 37.12 50.4-23.712-47.872-13.44-109.888-40.48-156.288a199.84 199.84 0 0 0-42.176-50.688c5.6 1.28 10.752 4.032 14.912 8 44.192 44.32 101.984 56.704 149.792 92.864a143.552 143.552 0 0 1 44.96 57.088c-8.96-73.472-81.6-142.592-150.272-164.48z m159.232 297.92c-21.664-30.752-47.84-59.744-67.744-91.136a175.072 175.072 0 0 1-4.576 79.04 697.152 697.152 0 0 0-36.032 158.144l0.64 21.44c12.576-56.96 68.256-96.32 64.704-160 0-14.336-2.112-28.608-6.368-42.304l1.024-1.024 2.4 2.88c6.016 31.808 14.464 63.072 25.216 93.6 18.304 41.856 40.896 84.352 31.68 135.232 27.68-59.84 19.36-139.904-10.944-195.904z m-34.208 322.56a195.168 195.168 0 0 0 17.92-185.92c-9.984-24.544-16.96-50.24-20.8-76.48-1.824 4.448-2.24 10.816-3.936 15.808-14.336 55.776-66.88 95.52-88.48 148.224a287.04 287.04 0 0 0-15.904 53.536c23.168-42.784 80.064-64.96 95.488-112.192 4.48-12.928 7.776-26.24 9.824-39.776a1.536 1.536 0 0 1 1.504 1.536 551.616 551.616 0 0 0 1.92 147.488 122.432 122.432 0 0 1-17.216 71.488c8-6.592 14.688-14.624 19.68-23.68z m-25.76 9.408c9.728-43.36-4.384-85.824 4.576-129.728l-0.48-0.512c-23.36 46.592-73.376 68.576-107.84 105.92A149.504 149.504 0 0 0 952.16 777.6c19.712-47.776 72.864-58.496 103.328-98.592 8.32-9.856 15.168-20.832 20.32-32.64l0.96 1.088c-17.568 37.6-23.52 80-35.68 120.288a93.472 93.472 0 0 1-34.72 45.44c40.096-8.192 74.912-50.24 83.136-88.96l-0.064 0.032zM982.4 824.128a182.976 182.976 0 0 0 52.704-98.784l4.992-11.52a435.808 435.808 0 0 0-111.648 119.264L894.24 867.808c30.08-12.704 62.336-20.576 88.128-43.68zM290.304 862.112a513.28 513.28 0 0 1-73.824-92.032 636.8 636.8 0 0 0-68.704-63.136c12.288 25.792 12.8 56.384 30.208 79.84 25.024 43.84 71.072 59.232 112.32 75.296v0.032zM124.64 769.152A101.536 101.536 0 0 0 179.136 805.76c-40.896-28.16-38.08-78.56-51.168-120.704-4.16-15.616-11.424-29.792-14.848-45.696l0.96-0.864a142.976 142.976 0 0 0 33.696 49.728c29.024 26.88 71.84 43.648 85.92 83.456-0.448-55.36-46.4-98.88-90.272-129.92a183.008 183.008 0 0 1-45.632-54.656c-0.96 13.824 2.176 27.968 1.088 42.88-4.736 48.224-8.288 103.264 25.76 139.136v0.064zM42.08 604.1600000000001A192.416 192.416 0 0 0 89.28 729.344a3.392 3.392 0 0 0 2.624 0.96C60.608 682.56 86.4 622.4 85.024 567.8399999999999L80.896 512c0.64-0.448 0.64-2.048 1.984-1.376 1.568 6.336 2.752 12.768 3.552 19.264 7.36 44.96 46.272 76.736 80.224 107.936 7.232 7.52 13.088 16.32 17.248 25.92a229.856 229.856 0 0 0-18.944-65.6c-26.304-51.84-75.04-94.528-84-153.696-4.352 56.8-42.88 99.296-38.88 159.648V604.1600000000001z m-23.68-69.696a215.36 215.36 0 0 0 12.768 45.12c-12.672-64.64 30.624-111.264 44.864-167.424 3.968-21.344 9.28-42.432 15.968-63.136a1.728 1.728 0 0 1 1.856 1.056c-20.992 59.648 9.344 114.976 40.128 161.504 6.944 12.992 12.096 26.88 15.36 41.28 1.088-28.896-1.44-57.792-7.52-86.016-7.424-35.68-18.432-69.408-28.16-103.936a160.576 160.576 0 0 1-1.504-68.672l-3.04 2.496c-22.432 41.696-66.944 74.176-80.128 119.808a253.824 253.824 0 0 0-10.56 117.856v0.064z m-2.08-126.4c5.056-68.544 78.304-104.768 112.288-161.6 7.168-12.384 15.808-23.872 25.728-34.208-1.664 7.392-8.416 13.472-10.912 21.024a148 148 0 0 0-13.344 80.896c3.264 35.04 17.888 67.584 12.256 104.448 29.92-64.864 20.8-145.6 37.44-215.776 4.48-15.36 13.248-29.12 19.072-43.712-61.44 42.016-145.056 81.92-172.288 159.04a194.432 194.432 0 0 0-10.24 89.824v0.096z m36.672-157.408c34.176-77.952 119.84-84.384 177.312-131.84 10.048-9.152 21.344-16.896 33.536-22.976l0.64 0.736a197.856 197.856 0 0 0-37.792 41.12c-33.536 46.976-21.664 112.96-46.976 163.456a381.536 381.536 0 0 0 57.536-87.392c20.608-50.976 28.384-108.512 75.968-147.104-51.424 16.96-111.776 12.16-157.12 44.16-49.664 30.624-93.76 82.624-103.104 139.84z m87.968-145.344c54.688-62.624 144.384-41.792 217.536-58.176 9.952-2.944 20.32-4.256 30.688-3.904-8.672 5.6-20.864 4.96-30.336 10.016-57.28 20.32-65.824 82.56-96.8 124.736a893.568 893.568 0 0 0 109.888-96.96 189.792 189.792 0 0 1 91.424-40.8c-8.96-1.984-18.08-3.424-27.2-4.32-59.904-15.04-126.72-39.296-190.368-17.536a185.088 185.088 0 0 0-104.832 86.912v0.032z m744.384-146.24c-61.76-23.168-126.208 1.152-174.368 37.92-19.648 12.448-36.928 30.464-62.176 28.672a77.216 77.216 0 0 1-25.92-2.496 476.48 476.48 0 0 0 130.432-90.688 197.12 197.12 0 0 0-23.616-21.632 467.104 467.104 0 0 1-128.544 104.96c-9.504-2.144-18.56-5.984-26.752-11.296a399.872 399.872 0 0 1-105.664-95.168l-24.768 20.544a453.76 453.76 0 0 0 131.04 93.824c-47.104 14.912-77.728-24.64-113.312-44.736a165.472 165.472 0 0 0-224.384 27.296c43.2-26.496 96.32-31.136 143.456-12.48 60.256 26.368 122.88 59.744 195.68 43.84 11.264-0.192 22.432-11.584 33.056-1.792a231.36 231.36 0 0 0 161.76-20.672l48-19.2a158.016 158.016 0 0 1 140.32 15.232 167.488 167.488 0 0 0-74.24-52.096z m66.336 64c-69.344-26.144-139.232 6.112-205.728 17.024l-12.8 1.6v0.448a187.552 187.552 0 0 1 88 39.744 891.52 891.52 0 0 0 111.776 101.6c-30.688-39.616-33.92-96-84.576-121.472a308.736 308.736 0 0 0-41.408-15.936 417.088 417.088 0 0 1 53.664 8.128c68.096 10.656 145.792-0.384 193.504 57.984a183.488 183.488 0 0 0-102.464-89.024l0.032-0.064z m126.08 196.608c-27.328-18.048-55.168-34.88-81.44-55.36v2.624c40.224 67.456 20.608 160 45.44 234.112l9.152 25.024c-4.992-46.24 15.008-85.44 13.504-131.84a150.592 150.592 0 0 0-25.152-75.2h2.496a902.944 902.944 0 0 0 58.304 78.816c35.744 34.688 72.224 70.464 76.96 118.688 12.096-80.64-32.64-151.296-99.296-196.8l0.032-0.064zM3745.088 259.552v-7.456h-113.376v7.456h-64.48v-58.816h64.448v23.168h113.344v-23.136h64.512V259.52h-64.448z m-2115.904 41.76v-9.76h-233.28v9.76h-70.176v-339.84h70.08v62.144h7.392a367.232 367.232 0 0 1 49.728 58.784l20.736-58.784c15.424 19.872 28.288 41.6 38.336 64.64a995.968 995.968 0 0 1-28.608 48.128c12.544 29.504 22.368 60.096 29.28 91.424H1461.12s-5.024-21.504-9.856-40.256c-8.864 13.888-17.6 27.552-25.6 39.904h-23.552l33.312-94.848c-0.768-2.176-24.192-60.16-39.552-87.584v219.52h233.28v-266.4h-41.248v-16.16c20.032-10.304 41.152-24.384 41.152-24.384a0.16 0.16 0 0 1 0.192 0.096v-0.352h1.152c37.536 0 68.096 19.36 68.928 43.36h0.128v300.608H1629.184z m-5.024-213.12c-5.76 10.688-16.128 28.128-28.576 48.16 12.512 29.536 22.304 60.128 29.248 91.424h-51.552l-1.344-6.4s-3.616-15.104-8.512-33.856c-8.864 13.888-17.6 27.584-25.6 39.904h-23.584l33.28-94.944a549.856 549.856 0 0 0-52.576-108.896h20.48a361.76 361.76 0 0 1 49.696 58.72l20.64-58.688 34.528 51.616a22.976 22.976 0 0 1 3.872 12.992z m1314.624 56.128v19.712l10.016-5.536c7.616-3.936 29.248-14.144 29.248-14.144s17.28 59.648 16.384 59.904a679.712 679.712 0 0 0-166.72 81.28c5.632 6.752 8.416 10.656 8.416 10.656l6.08 8.64h-84.16c-41.536-62.144-107.232-108.448-145.408-133.056l10.88-29.44s22.56 12.032 48.576 26.4v-24.384h92.768v-46.496h-108.448v-28.224h108.448v-68.16h-131.04v-28.16h353.824v28.224h-148.544v68.096h126.656v28.224h-126.656V144.32000000000005h99.744-0.064z m-259.808 28.32c23.36 12.96 48.224 27.2 61.6 36.032a453.504 453.504 0 0 1 65.504 53.344 492.64 492.64 0 0 1 117.184-89.344h-244.288z m-160 5.696h-72.512l-5.76-20h-84.896l32.448 64.896h-69.376a518.848 518.848 0 0 0-31.68-64.864h-103.616v-27.136h88.192a1474.24 1474.24 0 0 0-17.696-29.856 1.824 1.824 0 0 1-0.448 0.064l-20.16-33.632-1.344-2.4 55.456-19.36 0.16 0.288 39.616-13.632a170.752 170.752 0 0 0-10.112-4.576c-19.392-7.456-41.28-15.04-54.848-19.584-21.312-6.656-42.912-12.224-64.8-16.64l5.728-31.872c65.472 6.496 129.6 22.72 190.272 48.128l130.496-53.12 39.712 46.112a1103.84 1103.84 0 0 1-116.576 42.272 273.952 273.952 0 0 1 43.296 53.952c6.592 10.816 12.384 22.144 17.28 33.824h64v27.136h-57.696l4.864 20z m-139.2-113.92c-24.608 7.52-48.064 14.4-67.904 20.288l29.44 46.496h89.888a186.528 186.528 0 0 0-51.392-66.816z m130.56 222.464v-12.8h-92.288v27.296h-74.88v-27.296h-91.424v10.112H2189.12v-84.576h62.624v47.296h258.56v-44.48h62.592v84.384h-62.624l0.064 0.064z m844.96-49.056v-12.8h-258.528v10.08h-62.592v-67.84h62.592v30.592h258.56v-27.776h62.592V237.76h-62.624v0.064z m-1292.8-70.56a240.64 240.64 0 0 1 61.344 113.92H2061.76c-0.576-2.432-1.216-4.736-1.856-7.104h-57.056c3.168 8.896 5.632 18.016 7.36 27.296h-62.24a350.816 350.816 0 0 0-46.24-131.52l27.968-11.776c9.312 9.408 18.048 19.36 26.144 29.792 9.6-10.624 20.032-20.512 31.136-29.6-24.736-20.48-53.76-35.2-84.864-43.072l8.352-21.088c5.056 0.8 9.92 1.696 14.752 2.688v-135.136h61.504v10.656h56.96v-10.656h61.504v134.4c4.8-1.376 7.616-2.016 7.616-2.016L2144 142.59199999999998a456.096 456.096 0 0 0-81.504 24.64v0.032z m-88.192 47.232c6.528 10.496 12.416 21.344 17.6 32.544H2051.2a216.256 216.256 0 0 0-33.952-58.56c-14.816 7.808-29.12 16.448-42.88 25.92v0.096z m69.376-213.888h-56.96v68.992h56.96v-69.12 0.128z m-113.6 97.312a280.64 280.64 0 0 1 90.944 36.064 346.88 346.88 0 0 1 78.24-36.064h-169.184z m-162.72-112.64l142.4 41.92v30.176l-157.184-23.776 14.784-48.32z m55.84 178.144a366.176 366.176 0 0 0-64.48-66.304l11.936-36.928 126.656 22.56v30.912l-79.232-9.536a301.728 301.728 0 0 1 103.904 138.528h-56.832a233.248 233.248 0 0 0-19.392-44.896l-42.688-7.904c56.64 64.768 63.776 111.456 63.776 111.456h-56.736c-15.232-81.28-54.272-120.224-54.272-120.224l9.856-29.376 57.504 11.712z m1395.904 74.464l44.736 31.616c-21.12 15.36-36.704 26.656-48.544 36.16l-30.72-21.44c10.336-12.576 21.952-30.176 34.56-46.464l-0.032 0.128z m458.88 0l44.736 31.616c-21.12 15.36-36.704 26.656-48.544 36.16l-30.72-21.568c10.336-12.448 21.952-30.08 34.56-46.336l-0.032 0.128z m-543.072-4.896l46.24 32.992c-24 17.344-46.88 34.336-56.096 39.616l-29.6-21.056c10.88-15.36 24.864-30.304 39.456-51.68v0.128z m176.768-10.88c17.28 18.848 29.312 32.32 43.84 50.496l-50.688 32.928a2892.096 2892.096 0 0 0-40.96-83.52l47.808 0.096z m-36.512-124.672c13.376 10.208 25.6 21.76 36.544 34.56a131.52 131.52 0 0 1 23.296 42.016h-58.816l-3.712-6.368H3116.48v-27.744h143.104l-18.592-23.84-31.872 0.16v-18.784h-170.016v-27.424h170.016v-46.816s-31.296-0.192-51.712-0.192v-14.88c20.224-9.12 39.04-20.992 56-35.296 29.056 0 58.656 16.64 58.656 41.664V70.08000000000004h141.856v27.424h-138.816z m483.808 91.968h-152.832v-24.928h152.8v24.928z m31.68-135.424l-21.6 3.2-6.72-51.2c-0.736 0 0.896-0.704-1.376-0.704h-18.08c-1.536 0-2.528-0.448-2.528 1.856l0.256 97.344h50.88v24.896h-205.056v-24.992h32c0-28.96-26.144-76.896-61.056-109.12l16.672-21.44a166.496 166.496 0 0 1 94.08 130.56h21.984v-96.448c0.768-22.24 7.456-34.304 20.096-36.16h61.824a36.672 36.672 0 0 1 36.8 29.12 125.28 125.28 0 0 0-18.208 53.088h0.032z m-206.4 209.76c0 0.416-0.224 33.728 0 37.6h-48.16l-0.16-12.48h-22.528v12.48h-49.28v-328.16h49.28v88.096c11.488-3.744 18.784-15.04 17.44-27.04h15.232c26.56 0 36.672 12.032 36.672 38.496 0 14.464-0.16 31.808-0.16 35.616 0 19.648-22.656 57.152-40.32 72.64a118.08 118.08 0 0 1 41.952 82.752z m-48.16-178.944h-22.72v177.408h22.176c0.224-6.4-0.32-12.864-1.504-19.168-4.096-24.032-15.392-65.248-15.392-65.248 13.536-29.024 19.52-61.024 17.44-92.992zM680.576 198.72000000000003c-125.472 0-220.16 82.496-286.592 145.152-35.52 33.504-85.824 33.152-109.44 16.768-2.592-1.824-5.056-4.096-7.296-6.784a337.472 337.472 0 0 0-31.328 122.24C238.4 593.6320000000001 291.968 701.12 379.52 767.7760000000001c29.504 17.12 66.624 25.472 113.184 25.472 125.472 0 220.16-82.496 286.592-145.152 35.52-33.504 85.824-33.152 109.44-16.768 3.328 2.304 6.4 5.44 9.152 9.12 17.6-36.8 28.544-77.504 31.36-121.248 7.712-121.024-49.216-231.264-141.28-297.44-37.216-17.728-62.08-23.072-107.36-23.072z m280.448 322.56a357.12 357.12 0 0 1-65.28 185.152C838.848 794.24 710.496 866.496 597.312 868.48 502.08 875.872 342.4 836.48 259.904 677.44a368.32 368.32 0 0 1-45.792-203.36 368.768 368.768 0 0 1 53.312-169.024c0.992-3.136 2.368-6.272 4.128-9.28 1.632-3.168 2.784-5.216 4.128-7.36 56-89.056 185.92-162.88 300.288-164.864 95.232-7.392 254.88 32 337.376 191.04a368.32 368.32 0 0 1 47.68 206.72zM640 549.344h80a53.344 53.344 0 0 0 0-106.688H640v-80a53.344 53.344 0 0 0-106.656 0v80h-80a53.344 53.344 0 0 0 0 106.688h80v80a53.344 53.344 0 1 0 106.656 0v-80z"  horiz-adv-x="3840" />

    
    <glyph glyph-name="info" unicode="&#58974;" d="M153.6 896h716.8a153.6 153.6 0 0 0 153.6-153.6v-716.8a153.6 153.6 0 0 0-153.6-153.6H153.6a153.6 153.6 0 0 0-153.6 153.6V742.4a153.6 153.6 0 0 0 153.6 153.6z m0-51.2a102.4 102.4 0 0 1-102.4-102.4v-716.8a102.4 102.4 0 0 1 102.4-102.4h716.8a102.4 102.4 0 0 1 102.4 102.4V742.4a102.4 102.4 0 0 1-102.4 102.4H153.6z m76.8-204.8h563.2a25.6 25.6 0 1 0 0-51.2h-563.2a25.6 25.6 0 0 0 0 51.2z m0-153.6h563.2a25.6 25.6 0 1 0 0-51.2h-563.2a25.6 25.6 0 0 0 0 51.2z m0-153.6h563.2a25.6 25.6 0 1 0 0-51.2h-563.2a25.6 25.6 0 1 0 0 51.2z m0-153.6h256a25.6 25.6 0 1 0 0-51.2h-256a25.6 25.6 0 1 0 0 51.2z"  horiz-adv-x="1024" />

    
    <glyph glyph-name="handout" unicode="&#58975;" d="M1365.333333 213.33333300000004h-227.555555a113.777778 113.777778 0 0 1-113.777778-113.777777v-227.555556H113.777778a113.777778 113.777778 0 0 0-113.777778 113.777778V782.222222a113.777778 113.777778 0 0 0 113.777778 113.777778h1137.777778a113.777778 113.777778 0 0 0 113.777777-113.777778v-568.888889zM199.111111 725.333333a28.444444 28.444444 0 0 1-28.444444-28.444444v-56.888889a28.444444 28.444444 0 0 1 28.444444-28.444444h796.444445a28.444444 28.444444 0 0 1 28.444444 28.444444v56.888889a28.444444 28.444444 0 0 1-28.444444 28.444444h-796.444445z m0-284.444444a28.444444 28.444444 0 0 1-28.444444-28.444445v-56.888888a28.444444 28.444444 0 0 1 28.444444-28.444445h796.444445a28.444444 28.444444 0 0 1 28.444444 28.444445v56.888888a28.444444 28.444444 0 0 1-28.444444 28.444445h-796.444445z m0-284.444445a28.444444 28.444444 0 0 1-28.444444-28.444444v-56.888889a28.444444 28.444444 0 0 1 28.444444-28.444444h398.222222a28.444444 28.444444 0 0 1 28.444445 28.444444v56.888889a28.444444 28.444444 0 0 1-28.444445 28.444444h-398.222222zM1355.207111 156.44444399999998a113.777778 113.777778 0 0 0-22.926222-33.28l-216.007111-217.543111a113.777778 113.777778 0 0 0-35.384889-24.177777V99.55555600000002a56.888889 56.888889 0 0 0 56.888889 56.888888h217.429333z"  horiz-adv-x="1365" />

    
    <glyph glyph-name="practice" unicode="&#58976;" d="M1365.333333 213.33333300000004h-227.555555a113.777778 113.777778 0 0 1-113.777778-113.777777v-227.555556H113.777778a113.777778 113.777778 0 0 0-113.777778 113.777778V782.222222a113.777778 113.777778 0 0 0 113.777778 113.777778h1137.777778a113.777778 113.777778 0 0 0 113.777777-113.777778v-568.888889zM390.542222 139.37777800000003a36.408889 36.408889 0 0 1 50.005334-49.948445l145.464888 87.324445a28.444444 28.444444 0 0 1 5.518223 44.487111l-69.176889 69.176889a28.444444 28.444444 0 0 1-44.487111-5.518222l-87.324445-145.464889zM556.942222 376.547556a28.444444 28.444444 0 0 1 0-40.220445l80.440889-80.440889a28.444444 28.444444 0 0 1 40.220445 0l328.704 328.704a28.444444 28.444444 0 0 1 0 40.220445l-80.440889 80.440889a28.444444 28.444444 0 0 1-40.220445 0L556.942222 376.49066700000003zM1355.207111 156.44444399999998a113.777778 113.777778 0 0 0-22.926222-33.28l-216.007111-217.543111a113.777778 113.777778 0 0 0-35.384889-24.177777V99.55555600000002a56.888889 56.888889 0 0 0 56.888889 56.888888h217.429333z"  horiz-adv-x="1365" />

    
    <glyph glyph-name="community-hover" unicode="&#58895;" d="M512-20.48a312.604444 312.604444 0 0 0-142.222222 262.257778c0 109.795556 56.604444 206.506667 142.222222 262.257778a312.490667 312.490667 0 0 0 142.222222-262.257778 311.864889 311.864889 0 0 0-124.814222-250.083556c-5.688889-4.266667-11.491556-8.362667-17.408-12.231111zM199.111111 520.533333C241.777778 542.435556 290.133333 554.666667 341.333333 554.666667c68.835556 0 134.371556-22.300444 188.188445-62.919111A312.490667 312.490667 0 0 0 654.222222 247.466667 312.888889 312.888889 0 0 0 199.168 520.533333zM369.777778 247.466667a312.888889 312.888889 0 0 0 455.111111 273.066666 312.888889 312.888889 0 0 0-455.111111-273.066666zM568.832-49.777778a369.208889 369.208889 0 0 1 141.255111 263.68 369.777778 369.777778 0 0 1 169.415111 271.075556A311.580444 311.580444 0 0 0 995.555556 241.777778a312.888889 312.888889 0 0 0-426.723556-291.555556zM455.168-49.777778a312.888889 312.888889 0 0 0-310.670222 534.755556 369.777778 369.777778 0 0 1 169.415111-271.075556 369.208889 369.208889 0 0 1 141.255111-263.68zM204.743111 585.500444a313.002667 313.002667 0 0 0 614.513778 0A368.64 368.64 0 0 1 682.666667 611.555556a368.184889 368.184889 0 0 1-170.666667-41.642667A367.843556 367.843556 0 0 1 341.333333 611.555556c-48.241778 0-94.378667-9.216-136.590222-26.055112z"  horiz-adv-x="1024" />

    
    <glyph glyph-name="community" unicode="&#58897;" d="M341.333333-71.111111A312.888889 312.888889 0 1 0 341.333333 554.666667a312.888889 312.888889 0 0 0 0-625.777778z m0 56.888889c56.32 0 109.795556 18.204444 153.827556 51.370666a254.976 254.976 0 0 1 101.205333 227.157334 255.601778 255.601778 0 0 1-101.091555 182.044444A256 256 0 1 1 341.333333-14.222222zM682.666667-71.111111a312.888889 312.888889 0 1 0 0 625.777778 312.888889 312.888889 0 0 0 0-625.777778z m0 56.888889a256 256 0 1 1 0 512 256 256 0 0 1 0-512zM637.724444 239.616l-22.869333 52.110222a256 256 0 1 1-204.003555-0.739555l-22.528-52.280889a312.888889 312.888889 0 1 0 249.400888 0.910222z"  horiz-adv-x="1024" />

    
    <glyph glyph-name="administration" unicode="&#58898;" d="M739.555556 384l-48.924445-293.831111a56.888889 56.888889 0 0 0-56.149333-47.502222H389.518222a56.888889 56.888889 0 0 0-56.092444 47.502222L284.444444 384h57.685334l47.388444-284.444444h244.963556l47.388444 284.444444H739.555556zM253.724444 725.333333l63.943112 95.971556a28.444444 28.444444 0 0 0 17.635555 12.060444l154.908445 33.564445a28.444444 28.444444 0 0 0 12.060444-55.637334l-143.644444-31.118222L321.991111 725.333333H253.667556zM812.999111-5.233778L673.166222 42.666667H350.776889l-139.832889-47.786667-4.608-9.102222h611.214222l-4.551111 8.988444zM863.857778-71.111111H160.028444a28.444444 28.444444 0 0 0-25.372444 41.301333l25.543111 50.403556a56.888889 56.888889 0 0 0 32.369778 28.103111l139.776 47.786667A56.888889 56.888889 0 0 0 350.776889 99.555556h322.389333a56.888889 56.888889 0 0 0 18.432-3.072l139.832889-47.900445a56.888889 56.888889 0 0 0 32.312889-28.103111l25.486222-50.289778a28.444444 28.444444 0 0 0-25.372444-41.301333zM296.391111 407.779556h440.775111l192.056889 48.64 30.663111 63.260444L876.828444 668.444444H147.171556L64.512 520.419556l32.654222-63.601778 199.281778-49.038222zM147.228444 725.333333h729.656889a56.888889 56.888889 0 0 0 49.664-29.127111l83.057778-148.764444a56.888889 56.888889 0 0 0 1.536-52.565334l-30.72-63.260444a56.888889 56.888889 0 0 0-37.148444-30.321778l-198.940445-50.403555H289.507556L83.626667 401.635556a56.888889 56.888889 0 0 0-37.034667 29.297777L13.880889 494.478222a56.888889 56.888889 0 0 0 0.967111 53.703111l82.659556 148.024889A56.888889 56.888889 0 0 0 147.171556 725.333333z"  horiz-adv-x="1024" />

    
    <glyph glyph-name="administration-hover" unicode="&#58899;" d="M739.555556 384l-48.924445-293.831111a56.888889 56.888889 0 0 0-56.149333-47.502222H389.518222a56.888889 56.888889 0 0 0-56.092444 47.502222L284.444444 384h57.685334l47.388444-284.444444h244.963556l47.388444 284.444444H739.555556zM253.724444 725.333333l63.943112 95.971556a28.444444 28.444444 0 0 0 17.635555 12.060444l154.908445 33.564445a28.444444 28.444444 0 0 0 12.060444-55.637334l-143.644444-31.118222L321.991111 725.333333H253.667556zM147.171556 725.333333h729.656888a56.888889 56.888889 0 0 0 49.664-29.127111l83.057778-148.764444a56.888889 56.888889 0 0 0 1.536-52.565334l-30.72-63.260444a56.888889 56.888889 0 0 0-37.148444-30.321778l-198.940445-50.403555H289.507556L83.626667 401.635556a56.888889 56.888889 0 0 0-37.034667 29.297777L13.880889 494.478222a56.888889 56.888889 0 0 0 0.967111 53.703111l82.659556 148.024889A56.888889 56.888889 0 0 0 147.171556 725.333333zM863.857778-71.111111H160.028444a28.444444 28.444444 0 0 0-25.372444 41.301333l25.543111 50.403556a56.888889 56.888889 0 0 0 32.369778 28.103111l139.776 47.786667A56.888889 56.888889 0 0 0 350.776889 99.555556h322.389333a56.888889 56.888889 0 0 0 18.432-3.072l139.832889-47.900445a56.888889 56.888889 0 0 0 32.312889-28.103111l25.486222-50.289778a28.444444 28.444444 0 0 0-25.372444-41.301333z"  horiz-adv-x="1024" />

    
    <glyph glyph-name="handouts-hover" unicode="&#58900;" d="M1024 241.777778h-227.555556a56.888889 56.888889 0 0 1-56.888888-56.888889v-227.555556H113.777778a113.777778 113.777778 0 0 0-113.777778 113.777778v625.777778a113.777778 113.777778 0 0 0 113.777778 113.777778h796.444444a113.777778 113.777778 0 0 0 113.777778-113.777778v-455.111111z m-824.888889 341.333333a28.444444 28.444444 0 0 1 0-56.888889h625.777778a28.444444 28.444444 0 1 1 0 56.888889h-625.777778z m0-170.666667a28.444444 28.444444 0 0 1 0-56.888888h625.777778a28.444444 28.444444 0 1 1 0 56.888888h-625.777778z m0-170.666666a28.444444 28.444444 0 1 1 0-56.888889h227.555556a28.444444 28.444444 0 1 1 0 56.888889h-227.555556zM1013.930667 184.888889a113.777778 113.777778 0 0 0-22.869334-33.28l-159.232-160.597333a113.777778 113.777778 0 0 0-35.384889-24.234667v170.666667c0 47.047111 0.910222 47.445333 47.388445 47.445333h170.097778z"  horiz-adv-x="1024" />

    
    <glyph glyph-name="invite-hover" unicode="&#58901;" d="M796.444444 270.222222V355.555556a28.444444 28.444444 0 1 1-56.888888 0V270.222222h-85.333334a28.444444 28.444444 0 1 1 0-56.888889H739.555556v-85.333333a28.444444 28.444444 0 1 1 56.888888 0V213.333333h85.333334a28.444444 28.444444 0 1 1 0 56.888889H796.444444zM113.777778 782.222222h796.444444a113.777778 113.777778 0 0 0 113.777778-113.777778v-568.888888a113.777778 113.777778 0 0 0-113.777778-113.777778H113.777778a113.777778 113.777778 0 0 0-113.777778 113.777778V668.444444a113.777778 113.777778 0 0 0 113.777778 113.777778z m-15.246222-195.299555l339.057777-159.288889a142.222222 142.222222 0 0 1 153.258667 0.170666l336.611556 159.175112a28.444444 28.444444 0 1 1-30.72 47.900444L560.071111 475.704889a85.333333 85.333333 0 0 0-91.989333-0.113778l-339.057778 159.288889a28.444444 28.444444 0 0 1-30.549333-47.957333z"  horiz-adv-x="1024" />

    
    <glyph glyph-name="invite" unicode="&#58902;" d="M113.793138 725.333333a56.888889 56.888889 0 0 1-56.888889-56.888889v-568.888888a56.888889 56.888889 0 0 1 56.888889-56.888889h796.444444a56.888889 56.888889 0 0 1 56.888889 56.888889V668.444444a56.888889 56.888889 0 0 1-56.888889 56.888889H113.793138z m0 56.888889h796.444444a113.777778 113.777778 0 0 0 113.777778-113.777778v-568.888888a113.777778 113.777778 0 0 0-113.777778-113.777778H113.793138a113.777778 113.777778 0 0 0-113.777778 113.777778V668.444444a113.777778 113.777778 0 0 0 113.777778 113.777778zM16.39936 614.229333a28.444444 28.444444 0 0 0 24.120889 51.541334L477.882027 460.913778a85.333333 85.333333 0 0 1 72.704 0.113778l432.924444 204.686222a28.444444 28.444444 0 1 0 24.291556-51.427556l-432.924445-204.686222a142.222222 142.222222 0 0 0-121.116444-0.227556L16.39936 614.229333zM739.570916 384l56.888888 0 0-284.444444-56.888888 0 0 284.444444ZM910.237582 270.222222l0-56.888889-284.444444 0 0 56.888889 284.444444 0Z"  horiz-adv-x="1024" />

    
    <glyph glyph-name="order-hover" unicode="&#58903;" d="M910.222222 782.222222a113.777778 113.777778 0 0 0 113.777778-113.777778v-568.888888a113.777778 113.777778 0 0 0-113.777778-113.777778H113.777778a113.777778 113.777778 0 0 0-113.777778 113.777778V668.444444a113.777778 113.777778 0 0 0 113.777778 113.777778h455.111111a56.888889 56.888889 0 0 0 56.888889 56.888889h227.555555a56.888889 56.888889 0 0 0 56.888889-56.888889zM292.750222 442.311111l160.938667 160.938667a28.444444 28.444444 0 1 1-40.220445 40.220444L272.668444 502.670222l-60.302222 60.302222a28.444444 28.444444 0 1 1-40.277333-40.220444L252.586667 442.311111zM853.333333 298.666667a28.444444 28.444444 0 0 1-28.444444 28.444444h-625.777778a28.444444 28.444444 0 1 1 0-56.888889h625.777778a28.444444 28.444444 0 0 1 28.444444 28.444445z m-227.555555-113.777778a28.444444 28.444444 0 0 1-28.444445 28.444444h-398.222222a28.444444 28.444444 0 1 1 0-56.888889h398.222222a28.444444 28.444444 0 0 1 28.444445 28.444445z m50.289778 339.114667a113.777778 113.777778 0 0 0 126.236444 0.113777l51.029333-33.962666V782.222222h-227.555555v-291.84l50.289778 33.621334z"  horiz-adv-x="1024" />

    
    <glyph glyph-name="handouts" unicode="&#58904;" d="M113.777778 810.666667h796.444444a113.777778 113.777778 0 0 0 113.777778-113.777778v-465.180445a113.777778 113.777778 0 0 0-32.995556-80.099555l-159.175111-160.597333a113.777778 113.777778 0 0 0-80.782222-33.678223H113.777778a113.777778 113.777778 0 0 0-113.777778 113.777778v625.777778a113.777778 113.777778 0 0 0 113.777778 113.777778z m0-56.888889a56.888889 56.888889 0 0 1-56.888889-56.888889v-625.777778a56.888889 56.888889 0 0 1 56.888889-56.888889h614.968889a113.777778 113.777778 0 0 1 81.635555 34.531556l124.586667 128.284444A113.777778 113.777778 0 0 1 967.111111 256.341333V696.888889a56.888889 56.888889 0 0 1-56.888889 56.888889H113.777778z m85.333333-170.666667h625.777778a28.444444 28.444444 0 1 0 0-56.888889h-625.777778a28.444444 28.444444 0 0 0 0 56.888889z m0-170.666667h625.777778a28.444444 28.444444 0 1 0 0-56.888888h-625.777778a28.444444 28.444444 0 0 0 0 56.888888z m0-170.666666h227.555556a28.444444 28.444444 0 1 0 0-56.888889h-227.555556a28.444444 28.444444 0 1 0 0 56.888889zM967.509333 184.888889h-123.676444c-46.478222 0-47.388444-0.398222-47.388445-47.388445v-124.928l-21.504-21.617777a113.777778 113.777778 0 0 0-35.384888-24.177778V184.888889a56.888889 56.888889 0 0 0 56.888888 56.888889h217.429334a113.777778 113.777778 0 0 0-22.926222-33.28l-23.438223-23.608889z"  horiz-adv-x="1024" />

    
    <glyph glyph-name="notice" unicode="&#58905;" d="M56.888889 510.293333v-252.586666l113.777778-28.444445V538.737778l-113.777778-28.444445z m-13.824 55.182223L227.555556 611.555556v-455.111112l-184.490667 46.08A56.888889 56.888889 0 0 0 0 257.706667V510.293333a56.888889 56.888889 0 0 0 43.064889 55.182223zM256.796444 594.318222A56.888889 56.888889 0 0 1 227.555556 544.597333v-321.194666a56.888889 56.888889 0 0 1 29.240888-49.720889L625.777778-31.288889V799.288889L256.796444 594.318222z m-27.591111 49.777778L598.129778 849.066667A56.888889 56.888889 0 0 0 682.666667 799.288889v-830.577778a56.888889 56.888889 0 0 0-84.536889-49.777778L229.262222 123.904A113.777778 113.777778 0 0 0 170.666667 223.402667V544.597333a113.777778 113.777778 0 0 0 58.538666 99.498667zM682.666667 241.777778v56.888889a85.333333 85.333333 0 0 1 0 170.666666v56.888889a142.222222 142.222222 0 1 0 0-284.444444zM807.537778 97.052444a28.444444 28.444444 0 0 0-22.755556 52.110223 256 256 0 0 1 0.568889 469.447111 28.444444 28.444444 0 1 0 22.755556 52.110222 312.888889 312.888889 0 0 0-0.568889-573.667556z"  horiz-adv-x="1024" />

    
    <glyph glyph-name="notice-hover" unicode="&#58906;" d="M43.064889 565.475556l48.64 14.791111A17.066667 17.066667 0 0 0 113.777778 563.939556V201.955556a17.066667 17.066667 0 0 0-22.698667-16.099556l-48.014222 16.725333A56.888889 56.888889 0 0 0 0 257.706667V510.236444a56.888889 56.888889 0 0 0 43.064889 55.182223zM229.205333 644.096L598.129778 849.066667A56.888889 56.888889 0 0 0 682.666667 799.288889v-830.577778a56.888889 56.888889 0 0 0-84.536889-49.777778L229.262222 123.904A113.777778 113.777778 0 0 0 170.666667 223.402667V544.597333a113.777778 113.777778 0 0 0 58.538666 99.498667zM682.666667 241.777778v56.888889a85.333333 85.333333 0 0 1 0 170.666666v56.888889a142.222222 142.222222 0 1 0 0-284.444444zM807.537778 97.052444a28.444444 28.444444 0 0 0-22.755556 52.110223 256 256 0 0 1 0.568889 469.447111 28.444444 28.444444 0 1 0 22.755556 52.110222 312.888889 312.888889 0 0 0-0.568889-573.667556z"  horiz-adv-x="1024" />

    
    <glyph glyph-name="permission-hover" unicode="&#58907;" d="M448.398222 469.333333H227.555556a142.222222 142.222222 0 0 0 0 284.444445h220.842666A297.358222 297.358222 0 0 1 412.444444 611.555556c0-51.484444 13.027556-99.953778 35.953778-142.222223zM575.601778 298.666667H796.444444a142.222222 142.222222 0 1 0 0-284.444445h-220.842666a297.358222 297.358222 0 0 1 35.953778 142.222222c0 51.484444-13.027556 99.953778-35.953778 142.222223zM711.111111 384a227.555556 227.555556 0 1 0 0 455.111111 227.555556 227.555556 0 0 0 0-455.111111zM312.888889-71.111111a227.555556 227.555556 0 1 0 0 455.111111 227.555556 227.555556 0 0 0 0-455.111111z"  horiz-adv-x="1024" />

    
    <glyph glyph-name="permission" unicode="&#58908;" d="M542.264889 526.222222v-56.888889H227.555556a142.222222 142.222222 0 0 0 0 284.444445h316.416v-56.888889H227.555556a85.333333 85.333333 0 0 1 0-170.666667h314.709333zM479.288889 241.777778v56.888889H796.444444a142.222222 142.222222 0 1 0 0-284.444445H479.118222v56.888889H796.444444a85.333333 85.333333 0 0 1 0 170.666667H479.288889zM711.111111 384a227.555556 227.555556 0 1 0 0 455.111111 227.555556 227.555556 0 0 0 0-455.111111z m0 56.888889a170.666667 170.666667 0 1 1 0 341.333333 170.666667 170.666667 0 0 1 0-341.333333zM312.888889-71.111111a227.555556 227.555556 0 1 0 0 455.111111 227.555556 227.555556 0 0 0 0-455.111111z m0 56.888889a170.666667 170.666667 0 1 1 0 341.333333 170.666667 170.666667 0 0 1 0-341.333333z"  horiz-adv-x="1024" />

    
    <glyph glyph-name="test-hover" unicode="&#58909;" d="M796.444444 725.333333h113.777778a113.777778 113.777778 0 0 0 113.777778-113.777777v-568.888889a113.777778 113.777778 0 0 0-113.777778-113.777778H341.333333a113.777778 113.777778 0 0 0-113.777777 113.777778h56.888888a56.888889 56.888889 0 0 1 56.888889-56.888889h568.888889a56.888889 56.888889 0 0 1 56.888889 56.888889V611.555556a56.888889 56.888889 0 0 1-56.888889 56.888888h-113.777778V725.333333zM113.777778 839.111111h568.888889a113.777778 113.777778 0 0 0 113.777777-113.777778v-568.888889a113.777778 113.777778 0 0 0-113.777777-113.777777H113.777778a113.777778 113.777778 0 0 0-113.777778 113.777777V725.333333a113.777778 113.777778 0 0 0 113.777778 113.777778z m85.333333-170.666667a28.444444 28.444444 0 0 1 0-56.888888h398.222222a28.444444 28.444444 0 1 1 0 56.888888h-398.222222z m0-113.777777a28.444444 28.444444 0 0 1 0-56.888889h398.222222a28.444444 28.444444 0 1 1 0 56.888889h-398.222222z m0-113.777778a28.444444 28.444444 0 0 1 0-56.888889h398.222222a28.444444 28.444444 0 1 1 0 56.888889h-398.222222z m0-113.777778a28.444444 28.444444 0 1 1 0-56.888889h227.555556a28.444444 28.444444 0 1 1 0 56.888889h-227.555556z"  horiz-adv-x="1024" />

    
    <glyph glyph-name="order" unicode="&#58910;" d="M568.888889 725.333333H113.777778a56.888889 56.888889 0 0 1-56.888889-56.888889v-568.888888a56.888889 56.888889 0 0 1 56.888889-56.888889h796.444444a56.888889 56.888889 0 0 1 56.888889 56.888889V668.444444a56.888889 56.888889 0 0 1-56.888889 56.888889v-238.648889A55.011556 55.011556 0 0 0 824.718222 440.888889l-53.930666 35.84a56.888889 56.888889 0 0 1-63.146667 0l-53.589333-35.84A54.727111 54.727111 0 0 0 568.888889 486.4V725.333333z m341.333333 56.888889a113.777778 113.777778 0 0 0 113.777778-113.777778v-568.888888a113.777778 113.777778 0 0 0-113.777778-113.777778H113.777778a113.777778 113.777778 0 0 0-113.777778 113.777778V668.444444a113.777778 113.777778 0 0 0 113.777778 113.777778h455.111111a56.888889 56.888889 0 0 0 56.888889 56.888889h227.555555a56.888889 56.888889 0 0 0 56.888889-56.888889zM272.668444 502.670222l20.081778-20.138666a28.444444 28.444444 0 1 0-40.220444-40.220445L172.088889 522.808889a28.444444 28.444444 0 1 0 40.220444 40.220444l60.302223-60.302222L413.525333 643.413333a28.444444 28.444444 0 1 0 40.220445-40.220444L292.750222 442.311111a28.444444 28.444444 0 1 0-40.220444 40.220445l20.138666 20.138666zM853.333333 298.666667a28.444444 28.444444 0 0 0-28.444444-28.444445h-625.777778a28.444444 28.444444 0 1 0 0 56.888889h625.777778a28.444444 28.444444 0 0 0 28.444444-28.444444z m-227.555555-113.777778a28.444444 28.444444 0 0 0-28.444445-28.444445h-398.222222a28.444444 28.444444 0 1 0 0 56.888889h398.222222a28.444444 28.444444 0 0 0 28.444445-28.444444z m50.289778 339.114667a113.777778 113.777778 0 0 0 126.236444 0.113777l51.029333-33.962666V782.222222h-227.555555v-291.84l50.289778 33.621334z"  horiz-adv-x="1024" />

    
    <glyph glyph-name="teacher" unicode="&#58911;" d="M308.210993 157.634034l53.559932-19.027123-15.392091-43.222808a113.594764 113.594764 0 0 0-57.93333-64.408231L102.661268-58.196018c92.238948-8.633202 228.66626-13.0066 408.713961-13.0066 180.786067 0 317.724555 4.430196 410.304287 13.063398l-185.727439 89.17189a113.594764 113.594764 0 0 0-57.819735 64.181041l-13.574574 37.827057 53.503134 19.140717 13.517777-37.883853a56.797382 56.797382 0 0 1 28.966665-32.090521l185.727439-89.115093a56.797382 56.797382 0 0 0-19.31111-107.744633c-94.624438-8.917189-233.21005-13.347385-415.586444-13.347385-181.638028 0-319.655666 4.430196-414.052915 13.23379a56.797382 56.797382 0 0 0-19.31111 107.744634l185.954629 89.171889a56.797382 56.797382 0 0 1 28.966665 32.204116l15.335293 43.279605z m53.559932-19.027123l-15.392091-43.222808a113.594764 113.594764 0 0 0-57.93333-64.408231L102.661268-58.196018c92.238948-8.633202 228.66626-13.0066 408.713961-13.0066 180.786067 0 317.724555 4.430196 410.304287 13.063398l-185.727439 89.17189a113.594764 113.594764 0 0 0-57.819735 64.181041l-13.574574 37.827057 53.503134 19.140717 13.517777-37.883853a56.797382 56.797382 0 0 1 28.966665-32.090521l185.727439-89.115093a56.797382 56.797382 0 0 0-19.31111-107.744633c-94.624438-8.917189-233.21005-13.347385-415.586444-13.347385-181.638028 0-319.655666 4.430196-414.052915 13.23379a56.797382 56.797382 0 0 0-19.31111 107.744634l185.954629 89.171889a56.797382 56.797382 0 0 1 28.966665 32.204116l15.335293 43.279605 53.559931-19.027123zM202.340673 384.823562h57.081369c19.197515-178.11659 126.942149-312.385601 252.577958-312.385601s233.43724 134.269011 252.577958 312.385601h57.081369c-20.163071-207.19685-149.093128-369.182983-309.659327-369.182983S222.503744 177.626713 202.340673 384.823562z m-5.282156 170.392146c-2.555882 115.866659 3.748627 164.8828 33.794442 217.363581C274.586943 848.801376 363.304454 885.549282 512 885.549282c148.695546 0 237.413057-36.747906 281.147041-113.02679 30.102612-52.423984 36.350324-101.496922 33.794442-217.306784h-56.797382c2.271895 105.188751-3.067059 148.581951-26.297188 189.078485-31.920129 55.661434-101.496922 84.457707-231.846913 84.457707s-199.926785-28.85307-231.846913-84.457707c-23.230129-40.496533-28.569083-83.889733-26.297188-189.078485h-56.797382zM171.215708 555.215708v-93.94287C214.495313 408.394476 253.003938 384.823562 286.457596 384.823562c37.259083 0 74.40457 10.223529 111.94764 31.408952V555.215708H171.215708z m0 56.797382h227.189528a56.797382 56.797382 0 0 0 56.797382-56.797382v-138.983194a56.797382 56.797382 0 0 0-28.966665-49.470519C380.400466 340.919186 333.769815 328.02618 286.514393 328.02618c-53.105552 0-106.154307 32.374508-159.203061 97.293915A56.797382 56.797382 0 0 0 114.418326 461.272838V555.215708a56.797382 56.797382 0 0 0 56.797382 56.797382zM625.594764 555.215708v-138.528815c38.963004-21.46941 76.733263-31.863331 113.878751-31.863331 32.828887 0 70.769538 23.457319 113.310777 76.222087V555.215708h-227.189528z m0 56.797382h227.189528a56.797382 56.797382 0 0 0 56.797382-56.797382v-94.170059a56.797382 56.797382 0 0 0-12.552221-35.668756C844.662266 360.457485 792.181485 328.02618 739.473515 328.02618c-47.08503 0-94.170059 12.949803-141.311887 38.906207A56.797382 56.797382 0 0 0 568.797382 416.686893V555.215708a56.797382 56.797382 0 0 0 56.797382 56.797382zM442.536802 446.335127a28.398691 28.398691 0 0 0-31.46575 47.369016C444.013534 515.571135 477.807976 526.817017 512 526.817017c34.192024 0 67.929669-11.245882 100.928948-33.112874a28.398691 28.398691 0 0 0-31.46575-47.369016C557.437906 462.351988 534.378169 470.019635 512 470.019635c-22.378169 0-45.437906-7.667647-69.463198-23.684508z"  horiz-adv-x="1024" />

    
    <glyph glyph-name="timetable" unicode="&#58912;" d="M113.777778 725.333333a56.888889 56.888889 0 0 1-56.888889-56.888889v-568.888888a56.888889 56.888889 0 0 1 56.888889-56.888889h796.444444a56.888889 56.888889 0 0 1 56.888889 56.888889V668.444444a56.888889 56.888889 0 0 1-56.888889 56.888889H113.777778z m0 56.888889h796.444444a113.777778 113.777778 0 0 0 113.777778-113.777778v-568.888888a113.777778 113.777778 0 0 0-113.777778-113.777778H113.777778a113.777778 113.777778 0 0 0-113.777778 113.777778V668.444444a113.777778 113.777778 0 0 0 113.777778 113.777778zM227.555556 497.777778v-455.111111h568.888888V497.777778H227.555556zM170.666667 554.666667h682.666666v-568.888889H170.666667V554.666667zM398.222222 497.777778v-455.111111h227.555556V497.777778H398.222222zM341.333333 554.666667h341.333334v-568.888889H341.333333V554.666667zM967.111111 327.111111H56.888889v-113.777778h910.222222v113.777778z m56.888889 56.888889v-227.555556H0V384h1024zM967.111111 497.777778H56.888889v-113.777778h910.222222V497.777778z m56.888889 56.888889v-227.555556H0V554.666667h1024z"  horiz-adv-x="1024" />

    
    <glyph glyph-name="video" unicode="&#58913;" d="M113.777778 782.222222a56.888889 56.888889 0 0 1-56.888889-56.888889v-682.666666a56.888889 56.888889 0 0 1 56.888889-56.888889h568.888889a56.888889 56.888889 0 0 1 56.888889 56.888889V725.333333a56.888889 56.888889 0 0 1-56.888889 56.888889H113.777778z m0 56.888889h568.888889a113.777778 113.777778 0 0 0 113.777777-113.777778v-682.666666a113.777778 113.777778 0 0 0-113.777777-113.777778H113.777778a113.777778 113.777778 0 0 0-113.777778 113.777778V725.333333a113.777778 113.777778 0 0 0 113.777778 113.777778zM796.444444 544.369778v-320.739556l170.666667-146.033778V690.403556l-170.666667-146.033778z m-56.888888 26.168889l190.577777 163.100444a56.888889 56.888889 0 0 0 93.866667-43.235555v-612.807112a56.888889 56.888889 0 0 0-93.866667-43.235555L739.555556 197.461333V570.538667z"  horiz-adv-x="1024" />

    
    <glyph glyph-name="user-hover" unicode="&#58914;" d="M512 270.222222c174.990222 0 227.555556 158.72 227.555556 284.444445s-53.191111 227.555556-227.555556 227.555555-227.555556-101.831111-227.555556-227.555555 52.565333-284.444444 227.555556-284.444445z m0-56.888889c-229.432889 0-284.444444 184.263111-284.444444 341.333334s54.727111 284.444444 284.444444 284.444444 284.444444-127.374222 284.444444-284.444444-55.011556-341.333333-284.444444-341.333334zM512 270.222222c79.075556 0 158.037333-6.712889 237.056-20.138666a284.444444 284.444444 0 0 0 216.405333-174.819556L967.111111 71.111111a103.708444 103.708444 0 0 0-96.312889-142.222222H153.201778A103.708444 103.708444 0 0 0 56.888889 71.111111l1.706667 4.152889a284.444444 284.444444 0 0 0 216.348444 174.819556A1411.640889 1411.640889 0 0 0 512.056889 270.222222zM410.908444 388.778667a28.444444 28.444444 0 1 0 31.516445 47.331555c24.064-15.928889 47.104-23.665778 69.575111-23.665778 22.471111 0 45.511111 7.68 69.575111 23.665778a28.444444 28.444444 0 1 0 31.516445-47.331555c-32.995556-21.959111-66.787556-33.223111-101.091556-33.223111s-68.096 11.264-101.091556 33.223111z"  horiz-adv-x="1024" />

    
    <glyph glyph-name="user" unicode="&#58915;" d="M512 270.222222c174.990222 0 227.555556 158.72 227.555556 284.444445s-53.191111 227.555556-227.555556 227.555555-227.555556-101.831111-227.555556-227.555555 52.565333-284.444444 227.555556-284.444445z m0-56.888889c-229.432889 0-284.444444 184.263111-284.444444 341.333334s54.727111 284.444444 284.444444 284.444444 284.444444-127.374222 284.444444-284.444444-55.011556-341.333333-284.444444-341.333334zM284.501333 193.991111a227.555556 227.555556 0 0 1-173.112889-139.832889l-1.706666-4.152889A46.819556 46.819556 0 0 1 153.201778-14.222222h717.596444a46.819556 46.819556 0 0 1 43.52 64.227555l-1.706666 4.152889A227.555556 227.555556 0 0 1 739.555556 193.991111 1354.296889 1354.296889 0 0 1 512 213.333333c-75.832889 0-151.665778-6.428444-227.555556-19.342222z m227.555556 76.231111c78.961778 0 157.980444-6.712889 236.999111-20.138666a284.444444 284.444444 0 0 0 216.405333-174.819556L967.111111 71.111111a103.708444 103.708444 0 0 0-96.312889-142.222222H153.201778A103.708444 103.708444 0 0 0 56.888889 71.111111l1.706667 4.152889a284.444444 284.444444 0 0 0 216.348444 174.819556A1411.640889 1411.640889 0 0 0 512.056889 270.222222zM410.908444 388.778667a28.444444 28.444444 0 1 0 31.516445 47.331555c24.064-15.928889 47.104-23.665778 69.575111-23.665778 22.471111 0 45.511111 7.68 69.575111 23.665778a28.444444 28.444444 0 1 0 31.516445-47.331555c-32.995556-21.959111-66.787556-33.223111-101.091556-33.223111s-68.096 11.264-101.091556 33.223111z"  horiz-adv-x="1024" />

    
    <glyph glyph-name="test" unicode="&#58916;" d="M796.444444 725.333333h113.777778a113.777778 113.777778 0 0 0 113.777778-113.777777v-568.888889a113.777778 113.777778 0 0 0-113.777778-113.777778H341.333333a113.777778 113.777778 0 0 0-113.777777 113.777778h56.888888a56.888889 56.888889 0 0 1 56.888889-56.888889h568.888889a56.888889 56.888889 0 0 1 56.888889 56.888889V611.555556a56.888889 56.888889 0 0 1-56.888889 56.888888h-113.777778V725.333333zM113.777778 839.111111h568.888889a113.777778 113.777778 0 0 0 113.777777-113.777778v-568.888889a113.777778 113.777778 0 0 0-113.777777-113.777777H113.777778a113.777778 113.777778 0 0 0-113.777778 113.777777V725.333333a113.777778 113.777778 0 0 0 113.777778 113.777778z m0-56.888889a56.888889 56.888889 0 0 1-56.888889-56.888889v-568.888889a56.888889 56.888889 0 0 1 56.888889-56.888888h568.888889a56.888889 56.888889 0 0 1 56.888889 56.888888V725.333333a56.888889 56.888889 0 0 1-56.888889 56.888889H113.777778z m85.333333-113.777778h398.222222a28.444444 28.444444 0 1 0 0-56.888888h-398.222222a28.444444 28.444444 0 0 0 0 56.888888z m0-113.777777h398.222222a28.444444 28.444444 0 1 0 0-56.888889h-398.222222a28.444444 28.444444 0 0 0 0 56.888889z m0-113.777778h398.222222a28.444444 28.444444 0 1 0 0-56.888889h-398.222222a28.444444 28.444444 0 0 0 0 56.888889z m0-113.777778h227.555556a28.444444 28.444444 0 1 0 0-56.888889h-227.555556a28.444444 28.444444 0 1 0 0 56.888889z"  horiz-adv-x="1024" />

    
    <glyph glyph-name="teacher-hover" unicode="&#58917;" d="M308.210993 157.634034l53.559932-19.027123-15.392091-43.222808a113.594764 113.594764 0 0 0-57.93333-64.408231L102.661268-58.196018c92.238948-8.633202 228.66626-13.0066 408.713961-13.0066 180.786067 0 317.724555 4.430196 410.304287 13.063398l-185.727439 89.17189a113.594764 113.594764 0 0 0-57.819735 64.181041l-13.574574 37.827057 53.503134 19.140717 13.517777-37.883853a56.797382 56.797382 0 0 1 28.966665-32.090521l185.727439-89.115093a56.797382 56.797382 0 0 0-19.31111-107.744633c-94.624438-8.917189-233.21005-13.347385-415.586444-13.347385-181.638028 0-319.655666 4.430196-414.052915 13.23379a56.797382 56.797382 0 0 0-19.31111 107.744634l185.954629 89.171889a56.797382 56.797382 0 0 1 28.966665 32.204116l15.335293 43.279605z m53.559932-19.027123l-15.392091-43.222808a113.594764 113.594764 0 0 0-57.93333-64.408231L102.661268-58.196018c92.238948-8.633202 228.66626-13.0066 408.713961-13.0066 180.786067 0 317.724555 4.430196 410.304287 13.063398l-185.727439 89.17189a113.594764 113.594764 0 0 0-57.819735 64.181041l-13.574574 37.827057 53.503134 19.140717 13.517777-37.883853a56.797382 56.797382 0 0 1 28.966665-32.090521l185.727439-89.115093a56.797382 56.797382 0 0 0-19.31111-107.744633c-94.624438-8.917189-233.21005-13.347385-415.586444-13.347385-181.638028 0-319.655666 4.430196-414.052915 13.23379a56.797382 56.797382 0 0 0-19.31111 107.744634l185.954629 89.171889a56.797382 56.797382 0 0 1 28.966665 32.204116l15.335293 43.279605 53.559931-19.027123zM512 15.640579c-174.935937 0-312.385601 192.372733-312.385601 425.980365 0 22.037384-0.454379 40.610128-1.590327 78.0964-4.543791 141.87986-0.170392 195.382994 32.828887 252.861945C274.586943 848.801376 363.304454 885.549282 512 885.549282c148.695546 0 237.413057-36.747906 281.147041-113.02679 32.942482-57.478951 37.31588-110.925287 32.828887-252.805148-1.135948-37.486272-1.590327-56.059016-1.590327-78.0964 0-233.607632-137.449664-425.980365-312.385601-425.980365z m0 56.797382c138.699207 0 255.588219 163.633258 255.588219 369.182983 0 22.832548 0.454379 41.859671 1.647124 79.857119 4.089412 130.1796 0.170392 178.286982-25.38843 222.81613-31.920129 55.661434-101.496922 84.457707-231.846913 84.457707s-199.926785-28.85307-231.846913-84.457707c-25.558822-44.529147-29.534639-92.63653-25.38843-222.81613 1.192745-38.054246 1.647124-57.024572 1.647124-79.857119 0-205.549725 116.889012-369.182983 255.588219-369.182983zM171.215708 612.01309h227.189528a56.797382 56.797382 0 0 0 56.797382-56.797382v-138.983194a56.797382 56.797382 0 0 0-28.966665-49.470519C380.400466 340.919186 333.769815 328.02618 286.514393 328.02618c-53.105552 0-106.154307 32.374508-159.203061 97.293915A56.797382 56.797382 0 0 0 114.418326 461.272838V555.215708a56.797382 56.797382 0 0 0 56.797382 56.797382zM625.594764 612.01309h227.189528a56.797382 56.797382 0 0 0 56.797382-56.797382v-94.170059a56.797382 56.797382 0 0 0-12.552221-35.668756C844.662266 360.457485 792.181485 328.02618 739.473515 328.02618c-47.08503 0-94.170059 12.949803-141.311887 38.906207A56.797382 56.797382 0 0 0 568.797382 416.686893V555.215708a56.797382 56.797382 0 0 0 56.797382 56.797382zM442.536802 446.335127a28.398691 28.398691 0 0 0-31.46575 47.369016C444.013534 515.571135 477.807976 526.817017 512 526.817017c34.192024 0 67.929669-11.245882 100.928948-33.112874a28.398691 28.398691 0 0 0-31.46575-47.369016C557.437906 462.351988 534.378169 470.019635 512 470.019635c-22.378169 0-45.437906-7.667647-69.463198-23.684508z"  horiz-adv-x="1024" />

    
    <glyph glyph-name="video-hover" unicode="&#58918;" d="M796.444444 619.235556l133.688889 114.346666a56.888889 56.888889 0 0 0 93.866667-43.178666v-612.807112a56.888889 56.888889 0 0 0-93.866667-43.235555L796.444444 148.764444V42.666667a113.777778 113.777778 0 0 0-113.777777-113.777778H113.777778a113.777778 113.777778 0 0 0-113.777778 113.777778V725.333333a113.777778 113.777778 0 0 0 113.777778 113.777778h568.888889a113.777778 113.777778 0 0 0 113.777777-113.777778v-106.097777z m0-74.865778v-320.739556l170.666667-146.033778V690.403556l-170.666667-146.033778z"  horiz-adv-x="1024" />

    
    <glyph glyph-name="timetable-hover" unicode="&#58919;" d="M113.777778 725.333333a56.888889 56.888889 0 0 1-56.888889-56.888889v-568.888888a56.888889 56.888889 0 0 1 56.888889-56.888889h796.444444a56.888889 56.888889 0 0 1 56.888889 56.888889V668.444444a56.888889 56.888889 0 0 1-56.888889 56.888889H113.777778z m0 56.888889h796.444444a113.777778 113.777778 0 0 0 113.777778-113.777778v-568.888888a113.777778 113.777778 0 0 0-113.777778-113.777778H113.777778a113.777778 113.777778 0 0 0-113.777778 113.777778V668.444444a113.777778 113.777778 0 0 0 113.777778 113.777778zM227.555556 497.777778v-455.111111h568.888888V497.777778H227.555556zM170.666667 554.666667h682.666666v-568.888889H170.666667V554.666667zM398.222222 497.777778v-455.111111h227.555556V497.777778H398.222222zM341.333333 554.666667h341.333334v-568.888889H341.333333V554.666667zM967.111111 327.111111H56.888889v-113.777778h910.222222v113.777778z m56.888889 56.888889v-227.555556H0V384h1024zM967.111111 497.777778H56.888889v-113.777778h910.222222V497.777778z m56.888889 170.666666v-341.333333H0V668.444444a56.888889 56.888889 0 0 0 56.888889 56.888889h910.222222a56.888889 56.888889 0 0 0 56.888889-56.888889z"  horiz-adv-x="1024" />

    
    <glyph glyph-name="search" unicode="&#58920;" d="M840.411429 158.939429l163.181714-163.108572a73.142857 73.142857 0 0 0-103.424-103.424l-163.108572 163.108572a438.857143 438.857143 0 1 0 103.424 103.424zM482.742857 120.685714a292.571429 292.571429 0 1 1 0 585.142857 292.571429 292.571429 0 0 1 0-585.142857z"  horiz-adv-x="1024" />

    
    <glyph glyph-name="clean" unicode="&#58921;" d="M602.496 384l90.496 90.496a64 64 0 1 1-90.496 90.496L512 474.496 421.504 564.992a64 64 0 1 1-90.496-90.496L421.504 384 331.008 293.504a64 64 0 1 1 90.496-90.496L512 293.504l90.496-90.496a64 64 0 1 1 90.496 90.496L602.496 384zM512-128A512 512 0 1 0 512 896a512 512 0 0 0 0-1024z"  horiz-adv-x="1024" />

    
    <glyph glyph-name="option-date" unicode="&#58922;" d="M896 768h160.64c17.28 0 31.36-14.08 31.36-31.872v-832.256a31.424 31.424 0 0 0-31.36-31.872H31.36c-17.28 0-31.36 14.08-31.36 31.872V736.128C0 753.728 13.76 768 31.36 768H192V864.32C192 881.792 205.824 896 223.68 896h128.64C369.792 896 384 882.176 384 864.32V768h320V864.32c0 17.472 13.824 31.68 31.68 31.68h128.64c17.472 0 31.68-13.824 31.68-31.68V768zM64 640v-704h960V640H64z m192 192v-128h64V832H256z m512 0v-128h64V832h-64zM192 480c0 17.664 13.696 32 32.32 32h63.36c17.856 0 32.32-14.848 32.32-32 0-17.664-13.696-32-32.32-32h-63.36A32.512 32.512 0 0 0 192 480z m0-192c0 17.664 13.696 32 32.32 32h63.36c17.856 0 32.32-14.848 32.32-32 0-17.664-13.696-32-32.32-32h-63.36A32.512 32.512 0 0 0 192 288z m0-192c0 17.664 13.696 32 32.32 32h63.36c17.856 0 32.32-14.848 32.32-32 0-17.664-13.696-32-32.32-32h-63.36A32.512 32.512 0 0 0 192 96z m192 384c0 17.664 13.696 32 32.32 32h63.36c17.856 0 32.32-14.848 32.32-32 0-17.664-13.696-32-32.32-32h-63.36A32.512 32.512 0 0 0 384 480z m0-192c0 17.664 13.696 32 32.32 32h63.36c17.856 0 32.32-14.848 32.32-32 0-17.664-13.696-32-32.32-32h-63.36A32.512 32.512 0 0 0 384 288z m0-192c0 17.664 13.696 32 32.32 32h63.36c17.856 0 32.32-14.848 32.32-32 0-17.664-13.696-32-32.32-32h-63.36A32.512 32.512 0 0 0 384 96z m192 384c0 17.664 13.696 32 32.32 32h63.36c17.856 0 32.32-14.848 32.32-32 0-17.664-13.696-32-32.32-32h-63.36A32.512 32.512 0 0 0 576 480z m0-192c0 17.664 13.696 32 32.32 32h63.36c17.856 0 32.32-14.848 32.32-32 0-17.664-13.696-32-32.32-32h-63.36A32.512 32.512 0 0 0 576 288z m0-192c0 17.664 13.696 32 32.32 32h63.36c17.856 0 32.32-14.848 32.32-32 0-17.664-13.696-32-32.32-32h-63.36A32.512 32.512 0 0 0 576 96z m192 384c0 17.664 13.696 32 32.32 32h63.36c17.856 0 32.32-14.848 32.32-32 0-17.664-13.696-32-32.32-32h-63.36A32.512 32.512 0 0 0 768 480z m0-192c0 17.664 13.696 32 32.32 32h63.36c17.856 0 32.32-14.848 32.32-32 0-17.664-13.696-32-32.32-32h-63.36A32.512 32.512 0 0 0 768 288z m0-192c0 17.664 13.696 32 32.32 32h63.36c17.856 0 32.32-14.848 32.32-32 0-17.664-13.696-32-32.32-32h-63.36a32.512 32.512 0 0 0-32.32 32z"  horiz-adv-x="1088" />

    
    <glyph glyph-name="close" unicode="&#58923;" d="M512 460.580571L129.097143 843.483429a54.052571 54.052571 0 0 1-76.580572 0 54.491429 54.491429 0 0 1 0-76.580572L435.419429 384 52.516571 1.097143a54.052571 54.052571 0 0 1 0-76.580572c21.138286-21.211429 55.808-20.772571 76.580572 0L512 307.419429l382.902857-382.902858c21.211429-21.211429 55.296-21.357714 76.580572 0a54.491429 54.491429 0 0 1 0 76.580572L588.580571 384l382.902858 382.902857a54.052571 54.052571 0 0 1 0 76.580572 54.491429 54.491429 0 0 1-76.580572 0L512 460.580571z"  horiz-adv-x="1024" />

    
    <glyph glyph-name="man" unicode="&#58924;" d="M819.2 619.3664l-131.072-131.072a307.2 307.2 0 1 0-81.2032 63.6416L746.1888 691.2H665.6a51.2 51.2 0 0 0 0 102.4h204.8a51.2 51.2 0 0 0 51.2-51.2v-204.8a51.2 51.2 0 0 0-102.4 0V619.3664zM460.8 76.8a204.8 204.8 0 1 1 0 409.6 204.8 204.8 0 0 1 0-409.6z"  horiz-adv-x="1024" />

    
    <glyph glyph-name="woman" unicode="&#58925;" d="M563.2 179.2h102.4a51.2 51.2 0 0 0 0-102.4h-102.4v-102.4a51.2 51.2 0 0 0-102.4 0v102.4H358.4a51.2 51.2 0 0 0 0 102.4h102.4v55.4496A307.3024 307.3024 0 0 0 512 844.8a307.2 307.2 0 0 0 51.2-610.1504V179.2z m-51.2 153.6a204.8 204.8 0 1 1 0 409.6 204.8 204.8 0 0 1 0-409.6z"  horiz-adv-x="1024" />

    
    <glyph glyph-name="message" unicode="&#58926;" d="M291.141818 174.08h73.634909c0-88.110545 60.090182-147.362909 147.223273-147.362909 87.133091 0 147.688727 59.252364 147.688727 147.409454h73.169455c0-123.392-98.862545-223.418182-220.858182-223.418181-121.949091 0-220.858182 100.026182-220.858182 223.418181zM272.709818 669.323636C304.128 787.362909 383.906909 846.336 512 846.336c128 0 207.778909-58.88 239.243636-176.686545a139.636364 139.636364 0 0 0 2.653091-12.055273l46.685091-267.729455a139.636364 139.636364 0 0 1 78.987637-102.772363l60.974545-28.16a93.090909 93.090909 0 0 0 53.992727-85.504v-2.513455a63.441455 63.441455 0 0 0-63.394909-62.743273H93.044364a64.698182 64.698182 0 0 0-64.698182 62.882909v2.653091a93.090909 93.090909 0 0 0 52.596363 86.434909l65.536 31.65091a139.636364 139.636364 0 0 1 76.8 101.376l46.871273 264.657454a139.636364 139.636364 0 0 0 2.56 11.589818z"  horiz-adv-x="1024" />

    
    <glyph glyph-name="recover" unicode="&#58927;" d="M606.208 448h-224c-105.696 0-192-82.048-192-184.064a179.52 179.52 0 0 1 52.384-126.4 32 32 0 0 1 45.6 44.928 115.52 115.52 0 0 0-33.984 81.472c0 65.92 56.96 120.064 128 120.064h224v-96a32 32 0 0 1 51.2-25.6l170.656 128a32 32 0 0 1 0 51.2l-170.656 128a32 32 0 0 1-51.2-25.6v-96z"  horiz-adv-x="1024" />

    
    <glyph glyph-name="screen-esc" unicode="&#58928;" d="M320 256H249.696A25.504 25.504 0 0 0 224 281.28v13.44c0 14.144 11.52 25.28 25.696 25.28h109.024c14.144 0 25.28-11.52 25.28-25.696v-108.608a25.504 25.504 0 0 0-25.28-25.696h-13.44a25.376 25.376 0 0 0-25.28 25.696V256z m358.72 64h95.584c14.176 0 25.696-11.328 25.696-25.28v-13.44c0-14.144-11.52-25.28-25.696-25.28H704v-70.304a25.504 25.504 0 0 0-25.28-25.696h-13.44a25.376 25.376 0 0 0-25.28 25.696v108.608c0 14.176 11.328 25.696 25.28 25.696h13.44z m25.28 192h70.304c14.176 0 25.696-11.328 25.696-25.28v-13.44c0-14.144-11.52-25.28-25.696-25.28H665.28a25.376 25.376 0 0 0-25.28 25.696V582.304c0 14.176 11.328 25.696 25.28 25.696h13.44c14.144 0 25.28-11.52 25.28-25.696V512z m-384 0V582.304c0 14.176 11.328 25.696 25.28 25.696h13.44c14.144 0 25.28-11.52 25.28-25.696v-108.608a25.536 25.536 0 0 0-25.696-25.696H249.696A25.504 25.504 0 0 0 224 473.28v13.44c0 14.144 11.52 25.28 25.696 25.28H320z"  horiz-adv-x="1024" />

    
    <glyph glyph-name="repeal" unicode="&#58929;" d="M416 448h224c105.696 0 192-82.048 192-184.064a179.52 179.52 0 0 0-52.416-126.4 32 32 0 0 0-45.568 44.928A115.52 115.52 0 0 1 768 263.936C768 329.856 711.04 384 640 384h-224v-96a32 32 0 0 0-51.2-25.6l-170.656 128a32 32 0 0 0 0 51.2l170.656 128a32 32 0 0 0 51.2-25.6v-96z"  horiz-adv-x="1024" />

    
    <glyph glyph-name="screen-full" unicode="&#58930;" d="M288 224h70.304c14.176 0 25.696-11.328 25.696-25.28v-13.44c0-14.144-11.52-25.28-25.696-25.28H249.28a25.376 25.376 0 0 0-25.28 25.696v108.608c0 14.176 11.328 25.696 25.28 25.696h13.44c14.144 0 25.28-11.52 25.28-25.696V224z m448 0v70.304c0 14.176 11.328 25.696 25.28 25.696h13.44c14.144 0 25.28-11.52 25.28-25.696v-108.608a25.504 25.504 0 0 0-25.28-25.696h-109.024a25.504 25.504 0 0 0-25.696 25.28v13.44c0 14.144 11.52 25.28 25.696 25.28H736z m0 320h-70.304a25.504 25.504 0 0 0-25.696 25.28v13.44c0 14.144 11.52 25.28 25.696 25.28h109.024c14.144 0 25.28-11.52 25.28-25.696v-108.608a25.504 25.504 0 0 0-25.28-25.696h-13.44a25.376 25.376 0 0 0-25.28 25.696V544zM262.72 608h95.584c14.176 0 25.696-11.328 25.696-25.28v-13.44c0-14.144-11.52-25.28-25.696-25.28H288v-70.304a25.504 25.504 0 0 0-25.28-25.696h-13.44a25.376 25.376 0 0 0-25.28 25.696V582.304C224 596.48 235.328 608 249.28 608h13.44z"  horiz-adv-x="1024" />

    
    <glyph glyph-name="video1" unicode="&#58931;" d="M113.777778 839.111111h568.888889c62.577778 0 113.777778-51.2 113.777777-113.777778v-682.666666c0-62.577778-51.2-113.777778-113.777777-113.777778H113.777778c-62.577778 0-113.777778 51.2-113.777778 113.777778V725.333333c0 62.577778 51.2 113.777778 113.777778 113.777778zM113.777778 782.222222c-34.133333 0-56.888889-22.755556-56.888889-56.888889v-682.666666c0-34.133333 22.755556-56.888889 56.888889-56.888889h568.888889c34.133333 0 56.888889 22.755556 56.888889 56.888889V725.333333c0 34.133333-22.755556 56.888889-56.888889 56.888889H113.777778zM739.555556 571.733333l187.733333 164.977778c22.755556 22.755556 62.577778 17.066667 79.644444-5.688889 11.377778-11.377778 17.066667-28.444444 17.066667-39.822222v-614.4c0-34.133333-22.755556-56.888889-56.888889-56.888889-11.377778 0-28.444444 5.688889-39.822222 11.377778L739.555556 196.266667V571.733333zM796.444444 543.288889v-318.577778l170.666667-147.911111V691.2z"  horiz-adv-x="1024" />

    
    <glyph glyph-name="list-video-clips" unicode="&#58932;" d="M113.777778 896h187.733333c28.444444 0 62.577778-11.377778 79.644445-34.133333l68.266666-62.577778c22.755556-22.755556 85.333333-17.066667 113.777778-17.066667H910.222222c62.577778 0 113.777778-51.2 113.777778-113.777778v-682.666666c0-62.577778-51.2-113.777778-113.777778-113.777778H113.777778c-62.577778 0-113.777778 51.2-113.777778 113.777778V782.222222C0 844.8 51.2 896 113.777778 896z m0-56.888889c-34.133333 0-56.888889-22.755556-56.888889-56.888889v-796.444444c0-34.133333 22.755556-56.888889 56.888889-56.888889h796.444444c34.133333 0 56.888889 22.755556 56.888889 56.888889V668.444444c0 34.133333-22.755556 56.888889-56.888889 56.888889H563.2c-45.511111 0-125.155556 0-153.6 34.133334L341.333333 822.044444c-11.377778 11.377778-28.444444 17.066667-39.822222 17.066667H113.777778zM113.777778 839.111111c-34.133333 0-56.888889-22.755556-56.888889-56.888889v-796.444444c0-34.133333 22.755556-56.888889 56.888889-56.888889h796.444444c34.133333 0 56.888889 22.755556 56.888889 56.888889V668.444444c0 34.133333-22.755556 56.888889-56.888889 56.888889H563.2c-45.511111 0-125.155556 0-153.6 34.133334L341.333333 822.044444c-11.377778 11.377778-28.444444 17.066667-39.822222 17.066667H113.777778zM625.777778 457.955556l130.844444 108.088888c22.755556 22.755556 62.577778 17.066667 79.644445-5.688888 11.377778-11.377778 17.066667-28.444444 17.066666-39.822223v-386.844444c0-34.133333-22.755556-56.888889-56.888889-56.888889-11.377778 0-28.444444 5.688889-39.822222 11.377778L625.777778 196.266667V457.955556z m56.888889-233.244445V99.555556c0-34.133333-22.755556-56.888889-56.888889-56.888889H227.555556c-34.133333 0-56.888889 22.755556-56.888889 56.888889V554.666667c0 34.133333 22.755556 56.888889 56.888889 56.888889h398.222222c34.133333 0 56.888889-22.755556 56.888889-56.888889v-125.155556l113.777777 91.022222v-386.844444l-113.777777 91.022222zM682.666667 429.511111v-204.8l113.777777-91.022222V520.533333zM227.555556 554.666667h398.222222v-455.111111H227.555556z"  horiz-adv-x="1024" />

    
    <glyph glyph-name="cloud-public" unicode="&#58933;" d="M635.733333 64H292.266667C166.4 64 64 166.4 64 292.266667c0 119.466667 91.733333 217.6 209.066667 228.266666C317.866667 663.466667 450.133333 768 608 768c166.4 0 307.2-117.333333 343.466667-273.066667-29.866667 10.666667-64 17.066667-98.133334 17.066667-153.6 0-277.333333-123.733333-277.333333-277.333333 0-64 21.333333-123.733333 59.733333-170.666667zM665.6 192h83.2c-2.133333 12.8-2.133333 27.733333-2.133333 42.666667s0 29.866667 2.133333 42.666666h-83.2c-2.133333-12.8-4.266667-27.733333-4.266667-42.666666s2.133333-29.866667 4.266667-42.666667z m14.933333-42.666667c21.333333-42.666667 57.6-76.8 102.4-93.866666-12.8 25.6-23.466667 57.6-29.866666 93.866666h-72.533334z m360.533334 42.666667c2.133333 12.8 4.266667 27.733333 4.266666 42.666667s-2.133333 29.866667-4.266666 42.666666h-83.2c2.133333-12.8 2.133333-27.733333 2.133333-42.666666s0-29.866667-2.133333-42.666667h83.2z m-14.933334-42.666667h-72.533333c-6.4-36.266667-17.066667-68.266667-29.866667-93.866666 42.666667 17.066667 81.066667 51.2 102.4 93.866666z m-234.666666 42.666667h123.733333c2.133333 12.8 2.133333 27.733333 2.133333 42.666667s0 29.866667-2.133333 42.666666h-123.733333c-2.133333-12.8-2.133333-27.733333-2.133334-42.666666s0-29.866667 2.133334-42.666667z m6.4-42.666667c4.266667-23.466667 10.666667-44.8 19.2-64 12.8-29.866667 27.733333-42.666667 36.266666-42.666666s23.466667 12.8 36.266667 42.666666c8.533333 17.066667 14.933333 38.4 19.2 64h-110.933333z m-117.333334 170.666667h72.533334c6.4 36.266667 17.066667 68.266667 29.866666 93.866667-42.666667-17.066667-81.066667-51.2-102.4-93.866667z m345.6 0c-21.333333 42.666667-57.6 76.8-102.4 93.866667 12.8-25.6 23.466667-57.6 29.866667-93.866667h72.533333z m-228.266666 0h110.933333c-4.266667 23.466667-10.666667 44.8-19.2 64-12.8 29.866667-27.733333 42.666667-36.266667 42.666667s-23.466667-12.8-36.266666-42.666667c-8.533333-19.2-14.933333-40.533333-19.2-64zM853.333333 0c-130.133333 0-234.666667 104.533333-234.666666 234.666667s104.533333 234.666667 234.666666 234.666666 234.666667-104.533333 234.666667-234.666666-104.533333-234.666667-234.666667-234.666667z"  horiz-adv-x="1152" />

    
    <glyph glyph-name="training-platform" unicode="&#58934;" d="M426.666667-21.333333h424.533333c2.133333 0 4.266667 0 6.4 2.133333 4.266667 4.266667 6.4 10.666667 2.133333 14.933333l-27.733333 42.666667c-2.133333 2.133333-4.266667 4.266667-8.533333 4.266667h-106.666667l-23.466667 106.666666H1002.666667c23.466667 0 42.666667 19.2 42.666666 42.666667V746.666667c0 23.466667-19.2 42.666667-42.666666 42.666666H170.666667c-23.466667 0-42.666667-19.2-42.666667-42.666666v-311.466667c12.8 12.8 27.733333 23.466667 42.666667 34.133333V725.333333c0 12.8 8.533333 21.333333 21.333333 21.333334h789.333333c12.8 0 21.333333-8.533333 21.333334-21.333334v-469.333333c0-12.8-8.533333-21.333333-21.333334-21.333333H597.333333c0-115.2-70.4-213.333333-170.666666-256zM597.333333 277.333333l339.2 2.133334c10.666667 0 21.333333 8.533333 21.333334 21.333333l2.133333 371.2c0 4.266667-2.133333 6.4-4.266667 8.533333-6.4 2.133333-12.8 2.133333-14.933333-4.266666-74.666667-117.333333-185.6-168.533333-337.066667-157.866667-61.866667 4.266667-119.466667-4.266667-170.666666-25.6 85.333333-34.133333 149.333333-117.333333 164.266666-215.466667zM326.4 213.333333h85.333333c12.8 0 21.333333 8.533333 21.333334 21.333334s-8.533333 21.333333-21.333334 21.333333h-64v106.666667c0 12.8-8.533333 21.333333-21.333333 21.333333s-21.333333-8.533333-21.333333-21.333333v-128c0-12.8 8.533333-21.333333 21.333333-21.333334z m42.666667 298.666667h21.333333c12.8 0 21.333333 8.533333 21.333333 21.333333s-8.533333 21.333333-21.333333 21.333334h-128c-12.8 0-21.333333-8.533333-21.333333-21.333334s8.533333-21.333333 21.333333-21.333333h21.333333v-46.933333c-57.6-10.666667-106.666667-40.533333-140.8-85.333334l-46.933333 27.733334c-10.666667 6.4-23.466667 2.133333-29.866667-8.533334s-2.133333-21.333333 8.533334-27.733333l44.8-25.6c-17.066667-32-27.733333-70.4-27.733334-110.933333 0-130.133333 104.533333-234.666667 234.666667-234.666667s234.666667 104.533333 234.666667 234.666667c0 115.2-83.2 211.2-192 230.4V512z m-42.666667-469.333333c-106.666667 0-192 85.333333-192 192s85.333333 192 192 192 192-85.333333 192-192-85.333333-192-192-192z"  horiz-adv-x="1152" />

    
    <glyph glyph-name="computer" unicode="&#58935;" d="M106.666667 746.666667h213.333333c12.8 0 21.333333-8.533333 21.333333-21.333334v-682.666666c0-12.8-8.533333-21.333333-21.333333-21.333334H106.666667c-12.8 0-21.333333 8.533333-21.333334 21.333334V725.333333c0 12.8 8.533333 21.333333 21.333334 21.333334z m106.666666-64c-23.466667 0-42.666667-19.2-42.666666-42.666667v-128c0-23.466667 19.2-42.666667 42.666666-42.666667s42.666667 19.2 42.666667 42.666667v128c0 23.466667-19.2 42.666667-42.666667 42.666667zM170.666667 213.333333c-12.8 0-21.333333-8.533333-21.333334-21.333333s8.533333-21.333333 21.333334-21.333333h85.333333c12.8 0 21.333333 8.533333 21.333333 21.333333s-8.533333 21.333333-21.333333 21.333333H170.666667z m0-85.333333c-12.8 0-21.333333-8.533333-21.333334-21.333333s8.533333-21.333333 21.333334-21.333334h85.333333c12.8 0 21.333333 8.533333 21.333333 21.333334s-8.533333 21.333333-21.333333 21.333333H170.666667zM213.333333 661.333333c12.8 0 21.333333-8.533333 21.333334-21.333333v-128c0-12.8-8.533333-21.333333-21.333334-21.333333s-21.333333 8.533333-21.333333 21.333333v128c0 12.8 8.533333 21.333333 21.333333 21.333333zM629.333333 149.333333H426.666667c-23.466667 0-42.666667 19.2-42.666667 42.666667V746.666667c0 23.466667 19.2 42.666667 42.666667 42.666666h618.666666c23.466667 0 42.666667-19.2 42.666667-42.666666v-554.666667c0-23.466667-19.2-42.666667-42.666667-42.666667h-202.666666l23.466666-106.666666h113.066667c4.266667 0 6.4-2.133333 8.533333-4.266667l27.733334-42.666667c2.133333-2.133333 2.133333-4.266667 2.133333-6.4 0-6.4-4.266667-10.666667-10.666667-10.666666H471.466667c-2.133333 0-4.266667 0-6.4 2.133333-4.266667 4.266667-6.4 10.666667-2.133334 14.933333l27.733334 42.666667c2.133333 2.133333 4.266667 4.266667 8.533333 4.266667h106.666667l23.466666 106.666666zM448 746.666667c-12.8 0-21.333333-8.533333-21.333333-21.333334v-469.333333c0-12.8 8.533333-21.333333 21.333333-21.333333h576c12.8 0 21.333333 8.533333 21.333333 21.333333V725.333333c0 12.8-8.533333 21.333333-21.333333 21.333334H448zM490.666667 704h490.666666c12.8 0 21.333333-8.533333 21.333334-21.333333v-384c0-12.8-8.533333-21.333333-21.333334-21.333334H490.666667c-12.8 0-21.333333 8.533333-21.333334 21.333334V682.666667c0 12.8 8.533333 21.333333 21.333334 21.333333z"  horiz-adv-x="1152" />

    
    <glyph glyph-name="cloud-private" unicode="&#58937;" d="M640 57.6H292.266667C166.4 57.6 64 160 64 285.866667c0 119.466667 91.733333 217.6 209.066667 228.266666 44.8 142.933333 177.066667 247.466667 334.933333 247.466667 164.266667 0 302.933333-113.066667 341.333333-264.533333-29.866667 8.533333-61.866667 14.933333-96 14.933333-153.6 0-277.333333-123.733333-277.333333-277.333333 0-68.266667 23.466667-130.133333 64-177.066667zM808.533333 230.4c-10.666667 12.8-19.2 29.866667-19.2 46.933333 0 36.266667 27.733333 64 64 64s64-27.733333 64-64c0-17.066667-8.533333-34.133333-19.2-46.933333l34.133334-66.133333c2.133333-4.266667 0-10.666667-4.266667-14.933334-2.133333 0-2.133333-2.133333-4.266667-2.133333h-136.533333c-6.4 0-10.666667 4.266667-10.666667 10.666667 0 2.133333 0 4.266667 2.133334 4.266666l29.866666 68.266667zM853.333333 0c-130.133333 0-234.666667 104.533333-234.666666 234.666667s104.533333 234.666667 234.666666 234.666666 234.666667-104.533333 234.666667-234.666666-104.533333-234.666667-234.666667-234.666667z m0 42.666667c106.666667 0 192 85.333333 192 192s-85.333333 192-192 192-192-85.333333-192-192 85.333333-192 192-192z"  horiz-adv-x="1152" />

    
    <glyph glyph-name="notebook" unicode="&#58938;" d="M960 209.066667l6.4-6.4 76.8-155.733334c2.133333-2.133333 2.133333-6.4 2.133333-8.533333v-17.066667c0-10.666667-8.533333-21.333333-21.333333-21.333333H128c-10.666667 0-21.333333 8.533333-21.333333 21.333333v17.066667c0 4.266667 0 6.4 2.133333 8.533333l76.8 153.6c2.133333 2.133333 4.266667 6.4 6.4 6.4V746.666667c0 23.466667 19.2 42.666667 42.666667 42.666666h682.666666c23.466667 0 42.666667-19.2 42.666667-42.666666v-537.6zM256 746.666667c-12.8 0-21.333333-8.533333-21.333333-21.333334v-426.666666c0-12.8 8.533333-21.333333 21.333333-21.333334h640c12.8 0 21.333333 8.533333 21.333333 21.333334V725.333333c0 12.8-8.533333 21.333333-21.333333 21.333334H256zM298.666667 704h554.666666c12.8 0 21.333333-8.533333 21.333334-21.333333v-341.333334c0-12.8-8.533333-21.333333-21.333334-21.333333H298.666667c-12.8 0-21.333333 8.533333-21.333334 21.333333V682.666667c0 12.8 8.533333 21.333333 21.333334 21.333333z"  horiz-adv-x="1152" />

    
    <glyph glyph-name="router" unicode="&#58939;" d="M243.2 341.333333h667.733333c17.066667 0 34.133333-10.666667 40.533334-27.733333L1045.333333 66.133333c0-2.133333 2.133333-4.266667 2.133334-8.533333v-21.333333c0-10.666667-6.4-17.066667-14.933334-21.333334-147.2-40.533333-296.533333-59.733333-448-59.733333-153.6 0-305.066667 19.2-458.666666 59.733333-8.533333 2.133333-14.933333 10.666667-14.933334 21.333334v21.333333c0 2.133333 0 4.266667 2.133334 8.533333l93.866666 247.466667c2.133333 17.066667 17.066667 27.733333 36.266667 27.733333zM576 832h21.333333c12.8 0 21.333333-8.533333 21.333334-21.333333v-405.333334c0-10.666667-8.533333-21.333333-21.333334-21.333333h-21.333333c-10.666667 0-21.333333 8.533333-21.333333 21.333333V810.666667c0 12.8 8.533333 21.333333 21.333333 21.333333zM249.6 759.466667l21.333333 6.4c10.666667 2.133333 23.466667-4.266667 25.6-14.933334l89.6-332.8c2.133333-10.666667-2.133333-19.2-12.8-21.333333l-27.733333-6.4c-10.666667-2.133333-19.2 2.133333-21.333333 12.8L234.666667 731.733333c-4.266667 12.8 4.266667 23.466667 14.933333 27.733334z m652.8 4.266666l21.333333-6.4c10.666667-2.133333 19.2-14.933333 14.933334-25.6l-89.6-332.8c-2.133333-10.666667-12.8-14.933333-21.333334-12.8l-27.733333 6.4c-10.666667 2.133333-14.933333 12.8-12.8 21.333334L876.8 746.666667c4.266667 12.8 14.933333 21.333333 25.6 17.066666zM437.333333 277.333333c-6.4 0-10.666667-4.266667-10.666666-10.666666v-64c0-6.4 4.266667-10.666667 10.666666-10.666667h42.666667c6.4 0 10.666667 4.266667 10.666667 10.666667v64c0 6.4-4.266667 10.666667-10.666667 10.666666h-42.666667z m106.666667 0c-6.4 0-10.666667-4.266667-10.666667-10.666666v-85.333334c0-6.4 4.266667-10.666667 10.666667-10.666666h42.666667c6.4 0 10.666667 4.266667 10.666666 10.666666v85.333334c0 6.4-4.266667 10.666667-10.666666 10.666666h-42.666667z m106.666667 0c-6.4 0-10.666667-4.266667-10.666667-10.666666v-64c0-6.4 4.266667-10.666667 10.666667-10.666667h42.666666c6.4 0 10.666667 4.266667 10.666667 10.666667v64c0 6.4-4.266667 10.666667-10.666667 10.666666h-42.666666zM450.133333 256h17.066667c2.133333 0 2.133333 0 2.133333-2.133333v-38.4c0-2.133333 0-2.133333-2.133333-2.133334h-17.066667c-2.133333 0-2.133333 0-2.133333 2.133334v38.4c0 2.133333 0 2.133333 2.133333 2.133333z m106.666667 0h17.066667c2.133333 0 2.133333 0 2.133333-2.133333v-59.733334c0-2.133333 0-2.133333-2.133333-2.133333h-17.066667c-2.133333 0-2.133333 0-2.133333 2.133333v59.733334c0 2.133333 0 2.133333 2.133333 2.133333z m106.666667 0h17.066666c2.133333 0 2.133333 0 2.133334-2.133333v-38.4c0-2.133333 0-2.133333-2.133334-2.133334h-17.066666c-2.133333 0-2.133333 0-2.133334 2.133334v38.4c0 2.133333 0 2.133333 2.133334 2.133333z"  horiz-adv-x="1152" />

    
    <glyph glyph-name="phone" unicode="&#58940;" d="M405.333333 810.666667h-42.666666c-12.8 0-21.333333-8.533333-21.333334-21.333334v-810.666666c0-12.8 8.533333-21.333333 21.333334-21.333334h426.666666c12.8 0 21.333333 8.533333 21.333334 21.333334V789.333333c0 12.8-8.533333 21.333333-21.333334 21.333334H405.333333z m8.533334 0h324.266666c-8.533333 0-14.933333-4.266667-19.2-12.8l-4.266666-8.533334c-6.4-12.8-19.2-21.333333-34.133334-21.333333h-209.066666c-14.933333 0-27.733333 8.533333-34.133334 21.333333l-4.266666 8.533334c-4.266667 8.533333-10.666667 12.8-19.2 12.8zM362.666667 853.333333h426.666666c36.266667 0 64-27.733333 64-64v-810.666666c0-36.266667-27.733333-64-64-64H362.666667c-36.266667 0-64 27.733333-64 64V789.333333c0 36.266667 27.733333 64 64 64zM384 789.333333h17.066667c8.533333 0 14.933333-4.266667 19.2-10.666666 2.133333-4.266667 4.266667-8.533333 6.4-10.666667l8.533333-8.533333c8.533333-8.533333 19.2-12.8 32-12.8h219.733333c10.666667 0 21.333333 4.266667 29.866667 12.8 4.266667 2.133333 6.4 6.4 8.533333 8.533333 2.133333 2.133333 6.4 6.4 6.4 8.533333 6.4 8.533333 12.8 12.8 21.333334 12.8h14.933333c12.8 0 21.333333-8.533333 21.333333-21.333333v-768c0-12.8-8.533333-21.333333-21.333333-21.333333H384c-12.8 0-21.333333 8.533333-21.333333 21.333333V768c0 12.8 8.533333 21.333333 21.333333 21.333333z"  horiz-adv-x="1152" />

    
    <glyph glyph-name="Server" unicode="&#58941;" d="M170.666667 234.666667h810.666666c12.8 0 21.333333-8.533333 21.333334-21.333334v-149.333333c0-10.666667-8.533333-21.333333-21.333334-21.333333-10.666667 0-21.333333-8.533333-21.333333-21.333334v-21.333333c0-12.8-8.533333-21.333333-21.333333-21.333333H213.333333c-10.666667 0-21.333333 8.533333-21.333333 21.333333v21.333333c0 10.666667-10.666667 21.333333-21.333333 21.333334-12.8 0-21.333333 8.533333-21.333334 21.333333v149.333333c0 12.8 8.533333 21.333333 21.333334 21.333334zM170.666667 789.333333h810.666666c12.8 0 21.333333-8.533333 21.333334-21.333333v-149.333333c0-10.666667-8.533333-21.333333-21.333334-21.333334-10.666667 0-21.333333-8.533333-21.333333-21.333333 0-10.666667-8.533333-21.333333-21.333333-21.333333H213.333333c-10.666667 0-21.333333 8.533333-21.333333 21.333333v2.133333c0 10.666667-10.666667 21.333333-21.333333 21.333334-12.8 0-21.333333 8.533333-21.333334 21.333333V768c0 12.8 8.533333 21.333333 21.333334 21.333333z m0-277.333333h810.666666c12.8 0 21.333333-8.533333 21.333334-21.333333v-149.333334c0-10.666667-8.533333-21.333333-21.333334-21.333333-10.666667 0-21.333333-8.533333-21.333333-21.333333 0-10.666667-8.533333-21.333333-21.333333-21.333334H213.333333c-10.666667 0-21.333333 8.533333-21.333333 21.333334v2.133333c0 10.666667-10.666667 21.333333-21.333333 21.333333-12.8 0-21.333333 8.533333-21.333334 21.333334v149.333333c0 10.666667 8.533333 19.2 21.333334 19.2z m64-320c-12.8 0-21.333333-8.533333-21.333334-21.333333v-42.666667c0-12.8 8.533333-21.333333 21.333334-21.333333h234.666666c12.8 0 21.333333 8.533333 21.333334 21.333333v42.666667c0 12.8-8.533333 21.333333-21.333334 21.333333H234.666667z m0 554.666667c-12.8 0-21.333333-8.533333-21.333334-21.333334v-42.666666c0-12.8 8.533333-21.333333 21.333334-21.333334h234.666666c12.8 0 21.333333 8.533333 21.333334 21.333334V725.333333c0 12.8-8.533333 21.333333-21.333334 21.333334H234.666667z m0-277.333334c-12.8 0-21.333333-8.533333-21.333334-21.333333v-42.666667c0-12.8 8.533333-21.333333 21.333334-21.333333h234.666666c12.8 0 21.333333 8.533333 21.333334 21.333333v42.666667c0 12.8-8.533333 21.333333-21.333334 21.333333H234.666667z m426.666666-277.333333c-12.8 0-21.333333-8.533333-21.333333-21.333333v-42.666667c0-12.8 8.533333-21.333333 21.333333-21.333333s21.333333 8.533333 21.333334 21.333333v42.666667c0 12.8-8.533333 21.333333-21.333334 21.333333z m0 554.666667c-12.8 0-21.333333-8.533333-21.333333-21.333334v-42.666666c0-12.8 8.533333-21.333333 21.333333-21.333334s21.333333 8.533333 21.333334 21.333334V725.333333c0 12.8-8.533333 21.333333-21.333334 21.333334z m85.333334-554.666667c-12.8 0-21.333333-8.533333-21.333334-21.333333v-42.666667c0-12.8 8.533333-21.333333 21.333334-21.333333s21.333333 8.533333 21.333333 21.333333v42.666667c0 12.8-8.533333 21.333333-21.333333 21.333333z m0 554.666667c-12.8 0-21.333333-8.533333-21.333334-21.333334v-42.666666c0-12.8 8.533333-21.333333 21.333334-21.333334s21.333333 8.533333 21.333333 21.333334V725.333333c0 12.8-8.533333 21.333333-21.333333 21.333334z m85.333333-554.666667c-12.8 0-21.333333-8.533333-21.333333-21.333333v-42.666667c0-12.8 8.533333-21.333333 21.333333-21.333333s21.333333 8.533333 21.333333 21.333333v42.666667c0 12.8-8.533333 21.333333-21.333333 21.333333z m0 554.666667c-12.8 0-21.333333-8.533333-21.333333-21.333334v-42.666666c0-12.8 8.533333-21.333333 21.333333-21.333334s21.333333 8.533333 21.333333 21.333334V725.333333c0 12.8-8.533333 21.333333-21.333333 21.333334z m85.333333-554.666667c-12.8 0-21.333333-8.533333-21.333333-21.333333v-42.666667c0-12.8 8.533333-21.333333 21.333333-21.333333s21.333333 8.533333 21.333334 21.333333v42.666667c0 12.8-8.533333 21.333333-21.333334 21.333333z m0 554.666667c-12.8 0-21.333333-8.533333-21.333333-21.333334v-42.666666c0-12.8 8.533333-21.333333 21.333333-21.333334s21.333333 8.533333 21.333334 21.333334V725.333333c0 12.8-8.533333 21.333333-21.333334 21.333334zM661.333333 469.333333c-12.8 0-21.333333-8.533333-21.333333-21.333333v-42.666667c0-12.8 8.533333-21.333333 21.333333-21.333333s21.333333 8.533333 21.333334 21.333333v42.666667c0 12.8-8.533333 21.333333-21.333334 21.333333z m85.333334 0c-12.8 0-21.333333-8.533333-21.333334-21.333333v-42.666667c0-12.8 8.533333-21.333333 21.333334-21.333333s21.333333 8.533333 21.333333 21.333333v42.666667c0 12.8-8.533333 21.333333-21.333333 21.333333z m85.333333 0c-12.8 0-21.333333-8.533333-21.333333-21.333333v-42.666667c0-12.8 8.533333-21.333333 21.333333-21.333333s21.333333 8.533333 21.333333 21.333333v42.666667c0 12.8-8.533333 21.333333-21.333333 21.333333z m85.333333 0c-12.8 0-21.333333-8.533333-21.333333-21.333333v-42.666667c0-12.8 8.533333-21.333333 21.333333-21.333333s21.333333 8.533333 21.333334 21.333333v42.666667c0 12.8-8.533333 21.333333-21.333334 21.333333zM241.066667 725.333333h221.866666c4.266667 0 6.4-2.133333 6.4-6.4v-29.866666c0-4.266667-2.133333-6.4-6.4-6.4H241.066667c-4.266667 0-6.4 2.133333-6.4 6.4V718.933333c0 4.266667 2.133333 6.4 6.4 6.4z m0-277.333333h115.2c4.266667 0 6.4-2.133333 6.4-6.4v-29.866667c0-4.266667-2.133333-6.4-6.4-6.4h-115.2c-4.266667 0-6.4 2.133333-6.4 6.4v29.866667c0 4.266667 2.133333 6.4 6.4 6.4z m0-277.333333h179.2c4.266667 0 6.4-2.133333 6.4-6.4v-29.866667c0-4.266667-2.133333-6.4-6.4-6.4h-179.2c-4.266667 0-6.4 2.133333-6.4 6.4v29.866667c0 4.266667 2.133333 6.4 6.4 6.4z"  horiz-adv-x="1152" />

    
    <glyph glyph-name="firewall" unicode="&#58942;" d="M170.666667 106.666667h213.333333c12.8 0 21.333333-8.533333 21.333333-21.333334v-85.333333c0-12.8-8.533333-21.333333-21.333333-21.333333H170.666667c-12.8 0-21.333333 8.533333-21.333334 21.333333v85.333333c0 12.8 8.533333 21.333333 21.333334 21.333334z m0 341.333333h213.333333c12.8 0 21.333333-8.533333 21.333333-21.333333v-85.333334c0-12.8-8.533333-21.333333-21.333333-21.333333H170.666667c-12.8 0-21.333333 8.533333-21.333334 21.333333v85.333334c0 12.8 8.533333 21.333333 21.333334 21.333333zM170.666667 789.333333h213.333333c12.8 0 21.333333-8.533333 21.333333-21.333333v-85.333333c0-12.8-8.533333-21.333333-21.333333-21.333334H170.666667c-12.8 0-21.333333 8.533333-21.333334 21.333334V768c0 12.8 8.533333 21.333333 21.333334 21.333333z m149.333333-512h213.333333c12.8 0 21.333333-8.533333 21.333334-21.333333v-85.333333c0-12.8-8.533333-21.333333-21.333334-21.333334H320c-12.8 0-21.333333 8.533333-21.333333 21.333334v85.333333c0 12.8 8.533333 21.333333 21.333333 21.333333z m0 341.333334h213.333333c12.8 0 21.333333-8.533333 21.333334-21.333334v-85.333333c0-12.8-8.533333-21.333333-21.333334-21.333333H320c-12.8 0-21.333333 8.533333-21.333333 21.333333v85.333333c0 12.8 8.533333 21.333333 21.333333 21.333334z m298.666667-341.333334h213.333333c12.8 0 21.333333-8.533333 21.333333-21.333333v-85.333333c0-12.8-8.533333-21.333333-21.333333-21.333334H618.666667c-12.8 0-21.333333 8.533333-21.333334 21.333334v85.333333c0 12.8 8.533333 21.333333 21.333334 21.333333z m0 341.333334h213.333333c12.8 0 21.333333-8.533333 21.333333-21.333334v-85.333333c0-12.8-8.533333-21.333333-21.333333-21.333333H618.666667c-12.8 0-21.333333 8.533333-21.333334 21.333333v85.333333c0 12.8 8.533333 21.333333 21.333334 21.333334z m149.333333-512h213.333333c12.8 0 21.333333-8.533333 21.333334-21.333334v-85.333333c0-12.8-8.533333-21.333333-21.333334-21.333333H768c-12.8 0-21.333333 8.533333-21.333333 21.333333v85.333333c0 12.8 8.533333 21.333333 21.333333 21.333334z m0 341.333333h213.333333c12.8 0 21.333333-8.533333 21.333334-21.333333v-85.333334c0-12.8-8.533333-21.333333-21.333334-21.333333H768c-12.8 0-21.333333 8.533333-21.333333 21.333333v85.333334c0 12.8 8.533333 21.333333 21.333333 21.333333z m0 341.333333h213.333333c12.8 0 21.333333-8.533333 21.333334-21.333333v-85.333333c0-12.8-8.533333-21.333333-21.333334-21.333334H768c-12.8 0-21.333333 8.533333-21.333333 21.333334V768c0 12.8 8.533333 21.333333 21.333333 21.333333zM469.333333 106.666667h213.333334c12.8 0 21.333333-8.533333 21.333333-21.333334v-85.333333c0-12.8-8.533333-21.333333-21.333333-21.333333H469.333333c-12.8 0-21.333333 8.533333-21.333333 21.333333v85.333333c0 12.8 8.533333 21.333333 21.333333 21.333334z m0 341.333333h213.333334c12.8 0 21.333333-8.533333 21.333333-21.333333v-85.333334c0-12.8-8.533333-21.333333-21.333333-21.333333H469.333333c-12.8 0-21.333333 8.533333-21.333333 21.333333v85.333334c0 12.8 8.533333 21.333333 21.333333 21.333333z m0 341.333333h213.333334c12.8 0 21.333333-8.533333 21.333333-21.333333v-85.333333c0-12.8-8.533333-21.333333-21.333333-21.333334H469.333333c-12.8 0-21.333333 8.533333-21.333333 21.333334V768c0 12.8 8.533333 21.333333 21.333333 21.333333z m448-512h64c12.8 0 21.333333-8.533333 21.333334-21.333333v-85.333333c0-12.8-8.533333-21.333333-21.333334-21.333334h-64c-12.8 0-21.333333 8.533333-21.333333 21.333334v85.333333c0 12.8 8.533333 21.333333 21.333333 21.333333z m0 341.333334h64c12.8 0 21.333333-8.533333 21.333334-21.333334v-85.333333c0-12.8-8.533333-21.333333-21.333334-21.333333h-64c-12.8 0-21.333333 8.533333-21.333333 21.333333v85.333333c0 12.8 8.533333 21.333333 21.333333 21.333334zM170.666667 277.333333h64c12.8 0 21.333333-8.533333 21.333333-21.333333v-85.333333c0-12.8-8.533333-21.333333-21.333333-21.333334H170.666667c-12.8 0-21.333333 8.533333-21.333334 21.333334v85.333333c0 12.8 8.533333 21.333333 21.333334 21.333333z m0 341.333334h64c12.8 0 21.333333-8.533333 21.333333-21.333334v-85.333333c0-12.8-8.533333-21.333333-21.333333-21.333333H170.666667c-12.8 0-21.333333 8.533333-21.333334 21.333333v85.333333c0 12.8 8.533333 21.333333 21.333334 21.333334z"  horiz-adv-x="1152" />

    
    <glyph glyph-name="lab-hover" unicode="&#58943;" d="M754.119111 626.346667c-71.907556 43.804444-157.809778 41.130667-254.407111-6.087111-85.162667-41.642667-156.330667-41.642667-217.201778-1.706667L275.740444 622.933333 202.183111 773.688889A45.511111 45.511111 0 0 0 243.029333 839.111111h542.890667a45.511111 45.511111 0 0 0 40.789333-65.649778L754.119111 626.346667z m-25.315555-51.313778l-32.540445-65.991111a56.888889 56.888889 0 0 1 12.117333-66.673778l268.003556-250.936889a113.777778 113.777778 0 0 0 4.437333-161.792l-62.919111-65.649778a113.777778 113.777778 0 0 0-82.147555-35.100444H200.248889a113.777778 113.777778 0 0 0-80.327111 33.223111l-67.299556 67.128889a113.777778 113.777778 0 0 0 3.015111 163.953778l264.988445 245.646222a56.888889 56.888889 0 0 1 12.458666 66.673778L315.733333 541.013333c63.317333-18.375111 133.404444-8.760889 208.896 28.16 82.375111 40.220444 149.219556 41.528889 204.117334 5.859556z"  horiz-adv-x="1024" />

    
    <glyph glyph-name="lab" unicode="&#58944;" d="M261.290667 782.222222l122.936889-251.733333a113.777778 113.777778 0 0 0-24.860445-133.404445l-265.045333-245.589333c-23.779556-23.836444-23.722667-59.847111-1.479111-82.033778l67.299555-67.128889A56.888889 56.888889 0 0 1 200.248889-14.222222h635.448889a56.888889 56.888889 0 0 1 41.073778 17.521778l62.919111 65.706666a57.002667 57.002667 0 0 1-2.275556 80.896l-267.946667 250.88a113.777778 113.777778 0 0 0-24.291555 133.404445L767.601778 782.222222h-506.311111z m-18.204445 56.888889h542.833778a45.511111 45.511111 0 0 0 40.789333-65.649778L696.32 509.041778a56.888889 56.888889 0 0 1 12.117333-66.673778l268.003556-250.936889a113.777778 113.777778 0 0 0 5.290667-160.824889l-63.715556-66.616889A113.777778 113.777778 0 0 0 835.697778-71.111111H200.248889a113.777778 113.777778 0 0 0-80.327111 33.223111l-67.299556 67.128889a113.777778 113.777778 0 0 0 3.015111 163.953778l264.988445 245.646222a56.888889 56.888889 0 0 1 12.458666 66.673778L202.183111 773.632A45.511111 45.511111 0 0 0 243.029333 839.111111zM297.301333 589.937778a28.444444 28.444444 0 1 0 31.175111 47.616c44.373333-29.127111 96.369778-29.127111 159.516445 1.706666 80.270222 39.253333 151.893333 39.253333 211.057778-2.275555a28.444444 28.444444 0 0 0-32.711111-46.535111c-40.561778 28.501333-90.453333 28.501333-153.372445-2.275556-80.156444-39.139556-153.258667-39.139556-215.665778 1.763556z"  horiz-adv-x="1024" />

    
    <glyph glyph-name="error" unicode="&#58945;" d="M512 384m-512 0a512 512 0 1 1 1024 0 512 512 0 1 1-1024 0ZM512 665.6c15.36 0 25.6-10.24 25.6-25.6v-307.2c0-15.36-10.24-25.6-25.6-25.6s-25.6 10.24-25.6 25.6V640c0 15.36 10.24 25.6 25.6 25.6zM512 230.4c15.36 0 25.6-10.24 25.6-25.6v-76.8c0-15.36-10.24-25.6-25.6-25.6s-25.6 10.24-25.6 25.6v76.8c0 15.36 10.24 25.6 25.6 25.6z"  horiz-adv-x="1024" />

    
    <glyph glyph-name="succeed" unicode="&#58946;" d="M512 384m-512 0a512 512 0 1 1 1024 0 512 512 0 1 1-1024 0ZM422.4 225.28l-145.92 145.92c-10.24 10.24-10.24 25.6 0 35.84 10.24 10.24 25.6 10.24 35.84 0l125.44-125.44 271.36 271.36c10.24 10.24 25.6 10.24 35.84 0s10.24-25.6 0-35.84L458.24 225.28c-10.24-10.24-25.6-10.24-35.84 0z"  horiz-adv-x="1024" />

    
    </font>
</defs>
</svg>
